<?xml version="1.0" encoding="UTF-8" standalone="no"?>
<!-- Created with Inkscape (http://www.inkscape.org/) -->

<svg
   width="256.8364mm"
   height="185.94583mm"
   viewBox="0 0 256.83639 185.94583"
   version="1.1"
   id="svg1"
   inkscape:version="1.4.2 (f4327f4, 2025-05-13)"
   sodipodi:docname="cartão de Natal.svg"
   xmlns:inkscape="http://www.inkscape.org/namespaces/inkscape"
   xmlns:sodipodi="http://sodipodi.sourceforge.net/DTD/sodipodi-0.dtd"
   xmlns="http://www.w3.org/2000/svg"
   xmlns:svg="http://www.w3.org/2000/svg">
  <sodipodi:namedview
     id="namedview1"
     pagecolor="#ffffff"
     bordercolor="#000000"
     borderopacity="0.25"
     inkscape:showpageshadow="2"
     inkscape:pageopacity="0.0"
     inkscape:pagecheckerboard="0"
     inkscape:deskcolor="#d1d1d1"
     inkscape:document-units="mm"
     inkscape:zoom="0.71891835"
     inkscape:cx="676.01557"
     inkscape:cy="214.90619"
     inkscape:window-width="1920"
     inkscape:window-height="1009"
     inkscape:window-x="-8"
     inkscape:window-y="-8"
     inkscape:window-maximized="1"
     inkscape:current-layer="layer1" />
  <defs
     id="defs1" />
  <g
     inkscape:label="Warstwa 1"
     inkscape:groupmode="layer"
     id="layer1"
     transform="translate(23.544611,-78.902034)">
    <path
       id="rect1"
       style="fill:#ecd8ac;fill-opacity:1;stroke:#000000;stroke-width:0.304928;stroke-opacity:1"
       d="m 19.60901,110.80363 v 121.88868 l -41.158712,0.0114 a 45.430811,25.014991 3.3449579e-4 0 0 -0.234152,0.46023 h -0.517749 a 44.916866,25.617595 0.00206419 0 0 -1.090539,5.62302 44.916866,25.617595 0.00206419 0 0 0.04011,1.07181 45.430811,25.014991 3.3449579e-4 0 0 45.451831,24.83663 45.430811,25.014991 3.3449579e-4 0 0 4.519809,-0.12501 44.925428,25.772375 9.1700951e-4 0 0 0.376885,-0.007 v -0.015 a 45.430811,25.014991 3.3449579e-4 0 0 0.617566,-0.0398 l 58.089569,-0.0155 57.550372,-0.016 a 45.430811,25.014991 3.3449579e-4 0 0 5.59075,0.18906 v -5.2e-4 a 45.430811,25.014991 3.3449579e-4 0 0 45.40797,-25.02722 45.430811,25.014991 3.3449579e-4 0 0 -1.66703,-6.70259 H 193.012 V 110.80363 Z m 46.216792,122.13248 h 39.234178 a 45.430811,25.014991 3.3449579e-4 0 0 -0.0513,0.10176 l -19.333957,0.005 -19.792003,0.006 a 45.430811,25.014991 3.3449579e-4 0 0 -0.0569,-0.11261 z" />
    <path
       id="path1"
       style="fill:#ecd8ac;fill-opacity:1;stroke-width:0.304928"
       d="m 188.22442,79.059736 a 44.84566,25.014991 0 0 0 -44.84547,25.014844 44.84566,25.014991 0 0 0 1.78554,6.98925 h 42.72782 43.39109 a 44.84566,25.014991 0 0 0 1.78647,-6.98925 44.84566,25.014991 0 0 0 -44.84545,-25.014844 z" />
    <path
       id="path1-8"
       style="fill:#ecd8ac;fill-opacity:1;stroke:#000000;stroke-width:0.304928;stroke-opacity:1"
       d="m 63.112051,79.054498 a 44.84566,25.014991 0 0 0 -44.845468,25.014842 44.84566,25.014991 0 0 0 1.78554,6.98925 h 42.727818 43.391099 a 44.84566,25.014991 0 0 0 1.78646,-6.98925 44.84566,25.014991 0 0 0 -44.845449,-25.014842 z" />
    <rect
       style="fill:#ecd8ac;fill-opacity:1;stroke:#000000;stroke-width:0.284546;stroke-opacity:1"
       id="rect2"
       width="128.88492"
       height="31.449991"
       x="60.997826"
       y="79.244812"
       rx="87.930824"
       ry="1.3644821e-14" />
    <path
       id="path2"
       style="fill:#ead5a4;fill-opacity:1;stroke:#000000;stroke-width:0.361481;stroke-opacity:1"
       d="m 55.825918,80.358773 a 44.346787,24.716596 0 0 0 -1.453623,0.0136 v 30.128317 h 44.718306 a 44.346787,24.716596 0 0 0 1.082059,-5.42534 44.346787,24.716596 0 0 0 -44.346742,-24.716522 z" />
    <path
       id="path2-1"
       style="fill:#ebd7a9;fill-opacity:1;stroke:none;stroke-width:0.365835;stroke-opacity:1"
       d="m 55.305483,80.118543 a 43.968821,25.533299 0 0 0 -1.441237,0.01412 V 111.2565 h 44.337165 a 43.968821,25.533299 0 0 0 1.072836,-5.60462 43.968821,25.533299 0 0 0 -43.968764,-25.53321 z" />
    <path
       id="path2-1-2"
       style="fill:#ebd7a9;fill-opacity:1;stroke:#000000;stroke-width:0.367977;stroke-opacity:1"
       d="m 188.76952,79.363132 a 44.338335,25.617595 0 0 0 -1.45334,0.0141 v 31.226598 h 44.70977 a 44.338335,25.617595 0 0 0 1.08184,-5.62312 44.338335,25.617595 0 0 0 -44.33827,-25.617512 z" />
    <path
       id="path2-1-23"
       style="fill:#ebd7a9;fill-opacity:1;stroke:none;stroke-width:0.363681;stroke-opacity:1"
       d="m 187.95204,79.91251 a 44.346787,25.018251 0 0 0 -1.45362,0.0138 v 30.49602 h 44.71828 a 44.346787,25.018251 0 0 0 1.08206,-5.49156 44.346787,25.018251 0 0 0 -44.34672,-25.018177 z" />
    <rect
       style="fill:#ebd7a9;fill-opacity:1;stroke:none;stroke-width:0.304928;stroke-opacity:1"
       id="rect4"
       width="76.071526"
       height="25.382856"
       x="46.516651"
       y="218.95694"
       rx="96.999496"
       ry="1.4204591e-14" />
    <rect
       style="fill:#ebd7a9;fill-opacity:1;stroke:none;stroke-width:0.306755;stroke-opacity:1"
       id="rect5"
       width="78.452087"
       height="19.767885"
       x="20.312996"
       y="103.34471"
       rx="88.993858"
       ry="1.3643883e-14" />
    <path
       style="fill:#ebd7a9;fill-opacity:1;stroke:none;stroke-width:0.227;stroke-opacity:1"
       d="m 62.073139,79.942979 c -0.17349,0 -0.520472,-0.173491 -0.520472,0 0,0.173491 0.693962,0 0.520472,0 -0.650592,0 -1.301181,0 -1.951773,0"
       id="path5" />
    <path
       style="fill:#ebd7a9;fill-opacity:1;stroke:none;stroke-width:0.227;stroke-opacity:1"
       d="m 60.85328,79.471301 c 0.03253,0.0054 0.0656,0.0083 0.09759,0.01627 0.07854,0.01963 -7.94e-4,0.0077 0.0488,0.03253 0.01934,0.0097 0.09822,0.02992 0.113852,0.03253 0.02844,0.0047 0.201192,0.01114 0.211442,0.01626 0.03945,0.01972 -0.132461,0.03253 -0.14638,0.03253 -0.111409,0 -0.394658,0.04113 -0.455415,0.162648 -0.01307,0.02611 0.05269,0.0268 0.08132,0.03253 0.139036,0.02781 0.263776,0.03253 0.406619,0.03253 0.113853,0 0.227709,0 0.341562,0 0.0054,0 -0.01085,0 -0.01627,0 -0.0217,0 -0.04344,-0.0017 -0.06506,0 -0.04895,0.0038 -0.09737,0.01338 -0.146384,0.01627 -0.06763,0.004 -0.337828,-0.02 -0.390353,0.03253 -0.0038,0.0038 0.0038,0.01243 0,0.01626 -0.0077,0.0077 -0.02487,-0.0077 -0.03253,0 -0.02524,0.02525 0.235413,0.156441 0.260236,0.162648 0.0217,0.0054 0.06506,-0.0061 0.06506,0.01626 0,0.0054 -0.01085,0 -0.01627,0 -0.02711,0 -0.05422,0 -0.08132,0 -0.0759,0 -0.151805,0 -0.227709,0 -0.02764,0 -0.10605,0.0039 -0.08132,0.01626 0.02201,0.01101 0.18996,0.07103 0.227706,0.08132 0.07296,0.0199 0.157707,0.01879 0.227708,0.04879 0.01796,0.0077 0.03064,0.02527 0.04879,0.03253 0.01511,0.006 0.03425,-0.0073 0.04879,0 0.01535,0.0077 0.04879,0.03341 0.04879,0.01626 0,-0.0054 -0.01085,0 -0.01627,0 -0.06765,0 -0.114607,-0.01967 -0.178911,-0.03253 -0.02725,-0.0055 -0.274746,-0.01143 -0.309031,0 -0.06334,0.02111 -0.0016,0.01627 -0.06506,0.01627 -0.0067,0 -0.04449,-0.0043 -0.04879,0 -0.0038,0.0038 0.0038,0.01243 0,0.01626 -0.0083,0.0083 -0.06446,0.01747 -0.04879,0.04879 0.01643,0.03285 0.34748,0.07541 0.390356,0.03253 0.0033,-0.0033 0.0033,-0.07803 0,-0.08132 -0.0077,-0.0077 -0.0217,0 -0.03253,0"
       id="path6" />
    <path
       style="fill:#ebd7a9;fill-opacity:1;stroke:none;stroke-width:0.227;stroke-opacity:1"
       d="m 61.162311,80.089362 c -0.274354,0 -0.01328,-0.0085 -0.211442,0.01627 -0.03228,0.004 -0.06569,-0.0064 -0.09759,0 -0.02863,0.0057 -0.05362,0.0233 -0.08132,0.03253 -0.01627,0.0054 -0.03216,0.01211 -0.04879,0.01627 -0.0053,0.0013 -0.01627,-0.0054 -0.01627,0 0,0.04172 0.112794,0.0047 0.211441,0.01627 0.04964,0.0058 0.09674,0.02669 0.146381,0.03253 0.04308,0.0051 0.08687,-0.0033 0.13012,0 0.08843,0.0068 0.113852,0.03917 0.113852,0.01627 0,-0.01084 -0.02442,0.0072 -0.03253,0 -0.04308,-0.03829 -0.05734,-0.118815 -0.113856,-0.130118 -0.05015,-0.01003 -0.08195,0.06412 -0.130117,0.08132 -0.03064,0.01094 -0.06506,0 -0.09759,0 -0.06506,0 -0.130119,0 -0.195178,0 -0.0217,0 -0.08675,0 -0.06506,0 0.180438,0 0.356894,0.03595 0.536736,0.04879 0.05408,0.0039 0.108432,0 0.162648,0 0.0054,0 0.01627,0.0054 0.01627,0 0,-0.0042 -0.03518,0.006 -0.08132,0 -0.0083,-0.0011 -0.597091,-0.07897 -0.634326,-0.09759 -0.01019,-0.0051 -0.0078,-0.05904 0.08132,-0.08132 0.0581,-0.01452 0.119456,-0.0234 0.178914,-0.01626 0.07838,0.0094 0.148849,0.06864 0.227705,0.06506 0.0511,-0.0023 0.08291,-0.06165 0.13012,-0.08132 0.06369,-0.02654 0.204623,0.03253 0.2765,0.03253 0.0029,0 -0.09473,0 -0.09759,0 -0.04337,0 -0.08727,-0.0068 -0.130117,0 -0.400904,0.0633 0.04308,0.06682 -0.357825,0 -0.04813,-0.008 -0.09759,0 -0.146383,0 -0.01627,0 -0.06506,0 -0.0488,0 0.162648,0 0.325366,0.0048 0.487945,0 0.111207,-0.0033 0.07566,-0.014 0.162647,-0.04879 0.04066,-0.01626 -0.01627,0.03253 0.04879,0 0.0087,-0.0044 -0.02019,-0.07263 -0.13012,-0.113853 -0.05177,-0.01941 -0.109484,-0.01734 -0.162647,-0.03253 -0.06102,-0.01743 -0.117544,-0.04891 -0.178914,-0.06506 -0.115038,-0.03027 -0.249873,0.0052 -0.357823,-0.04879 -0.0048,-0.0024 0.01087,-6.72e-4 0.01627,0 0.03804,0.0048 0.07626,0.0087 0.113853,0.01626 0.13062,0.02612 0.259189,0.05748 0.390356,0.08132 0.10392,0.01889 0.02896,0.01626 0.09759,0.01626 0.0054,0 0.0217,0 0.01627,0 -0.148646,0 -0.01675,0.01068 -0.195178,-0.04879 -0.08449,-0.02816 -0.175178,-0.05297 -0.260236,-0.08132 -0.01543,-0.0051 -0.03253,0 -0.04879,0 -0.0054,0 -0.01926,-0.0045 -0.01627,0 0.03117,0.04675 0.258794,0.326978 0.2765,0.34156 0.03047,0.02509 0.08595,0.0046 0.113853,0.03253 0.04804,0.04804 0.06336,0.120234 0.09759,0.178912 0.0039,0.0066 0.0086,0.01626 0.01627,0.01626 0.0054,0 0.0048,-0.01384 0,-0.01626 -0.0097,-0.0048 -0.02283,0.0048 -0.03253,0 -0.0048,-0.0024 0.0033,-0.01193 0,-0.01626 -0.01381,-0.0184 -0.03851,-0.02822 -0.0488,-0.04879 -0.01765,-0.0353 -0.0011,-0.09017 -0.03253,-0.113853 -0.04423,-0.03317 -0.111522,-0.01148 -0.162648,-0.03253 -0.04312,-0.01776 -0.07551,-0.05478 -0.113853,-0.08132 -0.102661,-0.07107 -0.05959,-0.06506 -0.130119,-0.06506 -0.0054,0 -0.01627,-0.0054 -0.01627,0 0,0.0032 0.02233,-0.0033 0.06506,0 0.217258,0.01671 0.432536,0.03253 0.650592,0.03253 0.0217,0 0.04337,0 0.06506,0 0.0054,0 0.01627,0.0054 0.01627,0 0,-0.0054 -0.01244,0.0038 -0.01627,0 -0.0038,-0.0038 0.0042,-0.01288 0,-0.01626 -0.188939,-0.151152 -0.457872,-0.169187 -0.68312,-0.195177 -0.0377,-0.0044 -0.0759,0 -0.113853,0 -0.0054,0 0.01085,0 0.01627,0 0.04337,0 0.08698,-0.0045 0.130119,0 0.06028,0.0063 0.118669,0.02584 0.178912,0.03253 0.06466,0.0072 0.130119,0 0.195178,0 0.01085,0 0.04324,0.0017 0.03253,0 -0.252651,-0.03989 -0.493583,-0.06506 -0.748181,-0.06506 -0.0054,0 0.0109,-8.26e-4 0.01627,0 0.06519,0.01003 0.13012,0.02169 0.195178,0.03253 0.04442,0.0074 0.421259,0.05042 0.43915,0.03253 0.02606,-0.02606 -0.337968,-0.100124 -0.40662,-0.113854 -0.01889,-0.0038 -0.119327,-0.01353 -0.08132,-0.03253 0.05768,-0.02884 0.218567,0.01141 0.292767,0 0.03389,-0.0052 0.06385,-0.0264 0.09759,-0.03253 0.02199,-0.004 0.119237,0.01088 0.130117,0 0.04154,-0.04154 -0.369642,-0.158287 -0.390353,-0.162648 -0.04804,-0.01011 -0.09749,-0.01182 -0.146383,-0.01626 -0.01619,-0.0015 -0.06506,0 -0.04879,0 0.28934,0 0.572212,0.09759 0.862034,0.09759 0.0054,0 -0.01101,0.0013 -0.01627,0 -0.03829,-0.0096 -0.07624,-0.02056 -0.113853,-0.03253 -0.165933,-0.0528 -0.319498,-0.09643 -0.487942,-0.130118 -0.09196,-0.01839 -0.05368,-0.01627 -0.113855,-0.01627 -0.0054,0 -0.0217,0 -0.01627,0 0.03795,0 0.07664,-0.0074 0.113853,0 0.04542,0.0091 0.08617,0.03415 0.130119,0.04879 0.06495,0.02165 0.131905,0.02349 0.195178,0.04879 0.02566,0.01027 0.06177,0.03581 0.08132,0.01626 0.05074,-0.05074 -0.355793,-0.260236 -0.439147,-0.260236 -0.0054,0 0.01111,-0.0017 0.01627,0 0.02299,0.0077 0.04566,0.01798 0.06506,0.03253 0.0281,0.02107 0.05221,0.04565 0.08132,0.06506 0.01426,0.0095 0.03667,0.0041 0.04879,0.01626 0.0038,0.0038 -0.0038,0.01243 0,0.01627 0.01019,0.01018 0.03187,-6.59e-4 0.04879,0.01626"
       id="path7" />
    <path
       style="fill:#ebd7a9;fill-opacity:1;stroke:none;stroke-width:0.627;stroke-opacity:1;stroke-dasharray:none"
       d="m 61.243636,79.91045 c -0.1538,0.0012 -0.294182,0.05298 -0.43915,0.09759 -0.02643,0.0081 -0.108969,0.01627 -0.08132,0.01627 0.384932,0 0.769867,0 1.154798,0 0.01085,0 -0.0217,0 -0.03253,0 -0.323167,0 -0.299474,-0.0076 -0.585533,0.01626 -0.04892,0.0041 -0.0974,0.013 -0.146384,0.01627 -0.03246,0.0022 -0.06506,0 -0.09759,0 -0.125609,0 0.303794,-0.01847 0.130119,0.01626 -0.09702,0.0194 -0.194471,0.03756 -0.292767,0.04879 -0.156244,0.01786 -0.227428,0.01626 -0.357825,0.01626 -0.01085,0 0.0217,0 0.03253,0 0.03253,0 0.06506,0 0.09759,0 0.185883,0 0.367707,0.0047 0.553003,0.01627 0.02705,0.0017 0.05503,-0.0066 0.08132,0 0.0074,0.0019 -0.0088,0.01457 -0.01627,0.01627 -0.113853,0.02169 -0.227708,0.04337 -0.341561,0.06506 -0.02711,0 -0.05449,-0.0038 -0.08132,0 -0.01201,0.0017 -0.04465,0.01627 -0.03253,0.01627 0.08742,0 0.173281,-0.02353 0.260236,-0.03253 0.113763,-0.01177 0.227484,-0.02438 0.341561,-0.03253 0.07571,-0.0054 0.151805,0 0.227706,0 0.01085,0 0.04337,0 0.03253,0 -0.132025,0 0.06925,-0.0035 -0.195178,0.03253 -0.113795,0.01552 -0.255506,0.03253 -0.374089,0.03253 -0.01085,0 0.02193,0.0024 0.03253,0 0.03853,-0.0086 0.07484,-0.02653 0.113855,-0.03253 0.05168,-0.008 0.125899,0.0066 0.178911,0 0.01701,-0.0021 0.06092,-0.0041 0.04879,-0.01627 -0.01535,-0.01533 -0.04337,0 -0.06506,0 -0.184335,0 -0.369583,0.01834 -0.553003,0 -0.01574,-0.0016 0.02209,-0.04888 0.09759,-0.06506 0.05406,-0.01158 0.108334,-0.02218 0.162648,-0.03253 0.05954,-0.01134 0.120107,-0.01783 0.178914,-0.03253 0.0499,-0.01247 0.09759,-0.03253 0.14638,-0.04879 0.0051,-0.0017 -0.01085,0 -0.01627,0 -0.07048,0 -0.140983,-0.0018 -0.211441,0 -0.141021,0.0036 -0.282049,0.0082 -0.422884,0.01626 -0.04901,0.0028 -0.09753,0.01138 -0.146383,0.01626 -0.0054,5.4e-4 -0.02061,0.0033 -0.01627,0 0.05058,-0.03794 0.102666,-0.07759 0.162647,-0.09759 0.03354,-0.01118 0.222914,-0.01627 0.06506,-0.01627 -0.146384,0 -0.292767,0 -0.439148,0 -0.04337,0 -0.08675,0 -0.130119,0 -0.01627,0 -0.06506,0 -0.0488,0 0.232955,0 0.466447,-0.02698 0.699386,-0.03253 0.414835,-0.0099 0.199787,0.01575 0.487942,-0.01626 0.0054,-5.98e-4 -0.01085,0 -0.01627,0 -0.135541,0 -0.271082,0 -0.40662,0 -0.130119,0 -0.260236,0 -0.390356,0 -0.04879,0 -0.09783,-0.0049 -0.146383,0 -0.0076,7.62e-4 -0.02395,0.01626 -0.01627,0.01626 0.09359,0 0.183592,-0.03753 0.276503,-0.04879 0.437816,-0.05307 0.310277,-0.02085 0.813236,-0.04879 0.135763,-0.0075 0.270992,-0.02284 0.40662,-0.03253 0.01622,-0.0012 0.0603,0.0115 0.04879,0 -0.01579,-0.01581 -0.04286,-0.01365 -0.06506,-0.01626 -0.0702,-0.0083 -0.141417,-0.0066 -0.211442,-0.01627 -0.08743,-0.01206 -0.172595,-0.0384 -0.260236,-0.04879 -0.626838,-0.07437 -0.563115,-0.05532 -1.057211,-0.08132 -0.08679,-0.0046 -0.173472,-0.01116 -0.260237,-0.01626 -0.0054,-3.18e-4 -0.0217,0 -0.01627,0 0.515052,0 1.030103,0 1.545154,0 0.0054,0 -0.01085,0 -0.01627,0 -0.178911,0 -0.357822,0 -0.536736,0 -0.850972,0 -0.51276,0.0084 -1.203593,-0.01627 -0.146391,-0.0052 -0.292753,-0.01122 -0.43915,-0.01627 -0.01085,-3.73e-4 -0.04332,0.0011 -0.03253,0 0.275207,-0.02752 0.244166,-0.01626 0.601795,-0.01626 0.04735,0 0.232974,0.011 0.243973,0 0.03454,-0.03454 -0.04028,-0.07281 -0.04879,-0.08132 -0.01918,-0.01917 0.05422,0 0.08132,0 0.08132,0 0.162827,-0.0054 0.24397,0 0.08673,0.0058 0.0949,0.03524 0.16265,0.04879 0.139165,0.02783 0.315841,-0.01627 0.455411,-0.01627 0.04059,0 0.07403,-0.01925 0.113856,-0.03253 0.0031,-0.001 0.04879,8.33e-4 0.04879,0 0,-0.0054 -0.05566,-0.05942 -0.06506,-0.06506 -0.0069,-0.0041 -0.08735,-0.04675 -0.09759,-0.04879 -0.02127,-0.0043 -0.04448,0.0069 -0.06506,0 -0.01455,-0.0049 -0.01881,-0.02567 -0.03253,-0.03253 -0.03058,-0.01529 -0.218011,0 -0.260236,0 -0.01085,0 -0.02487,-0.0077 -0.03253,0 -0.02088,0.02087 0.04594,0.04765 0.04879,0.04879 0.09518,0.03807 0.19307,0.03253 0.292765,0.03253 0.0217,0 0.04337,0 0.06506,0 0.0054,0 0.01627,0.0054 0.01627,0 0,-0.0054 -0.01085,0 -0.01627,0 -0.01627,0 -0.03253,0 -0.04879,0 -0.07609,0 -0.02265,0.0051 -0.09759,-0.01627 -0.0611,-0.01746 -0.116856,-0.01627 -0.178914,-0.01627"
       id="path8" />
    <path
       style="fill:#ebd7a9;fill-opacity:1;stroke:none;stroke-width:0.626999;stroke-dasharray:none;stroke-opacity:1"
       d="m 61.455078,80.056833 c -0.08675,0.0054 -0.173392,0.01279 -0.260237,0.01626 -0.06693,0.0027 -0.47817,-0.02604 -0.520472,0.01626 -0.01048,0.01049 0.02379,0.02816 0.06506,0.04879 0.12381,0.06191 0.03553,0.01669 0.146384,0.03253 0.06594,0.0094 0.128349,0.03925 0.195178,0.04879 0.06563,0.0094 0.14556,0 0.211441,0 0.01085,0 -0.02172,9.82e-4 -0.03253,0 -0.123809,-0.01126 -0.234932,-0.03253 -0.357825,-0.03253 -0.04982,0 -0.105812,-0.0082 -0.08132,0.01626 0.01688,0.01689 0.08454,0.01627 0.113853,0.01627 0.02204,0 0.06299,-0.0092 0.08132,0 0.0042,0.0021 0.01982,0.02898 0.03253,0.01626 0.0068,-0.0068 -0.01627,-0.06673 -0.01627,-0.08132 0,-0.101307 0.0048,0.04051 -0.01627,-0.06506 -0.01648,-0.08237 -0.03709,-0.218578 0,-0.292766 0.0024,-0.0048 -0.0048,-0.01384 0,-0.01626 0.0097,-0.0048 0.0217,0 0.03253,0 0.01085,0 0.02283,-0.0048 0.03253,0 0.03465,0.01732 0.01627,0.09809 0.01627,0.130119 0,0.0057 0.0062,0.0751 0,0.08132 -0.0038,0.0038 -0.01244,-0.0038 -0.01627,0 -0.0093,0.0093 -0.0095,0.04111 -0.03253,0.04879 -0.03132,0.01044 -0.270253,0.0062 -0.292767,-0.01626 -0.0077,-0.0077 0,-0.02169 0,-0.03253 0,-0.140867 0.194715,-0.09759 0.292767,-0.09759 0.01709,0 0.0507,0.0048 0.06506,0 0.05284,-0.01761 0.06798,-0.224791 0.03253,-0.260236 -0.008,-0.008 -0.04971,-0.01627 -0.06506,-0.01627 -0.04671,0 -0.07252,-0.0044 -0.113852,0.01627 -0.01619,0.0081 -0.05792,0.02735 -0.06506,0.04879 -0.0034,0.01029 0.0048,0.02283 0,0.03253 -0.0024,0.0049 -0.01244,-0.0038 -0.01627,0 -0.0236,0.0236 0.08726,0.01368 0.09759,0.01627 0.02646,0.0066 0.131172,0.04563 0.146383,0 0.0072,-0.02147 0,-0.05816 0,-0.08132 0,-0.06863 -7.94e-4,-0.04909 -0.04879,-0.06506 -0.0073,-0.0024 -0.0094,-0.01284 -0.01627,-0.01627 -0.06743,-0.03372 -0.178547,0.04952 -0.227706,-0.04879 -0.01114,-0.02228 0.01503,-0.12887 0.01627,-0.130118 0.0077,-0.0077 0.0217,0 0.03253,0"
       id="path9" />
    <path
       style="fill:#ebd7a9;fill-opacity:1;stroke:none;stroke-width:0.626999;stroke-dasharray:none;stroke-opacity:1"
       d="m 60.9834,79.585154 c 0.01627,0.02169 0.03812,0.04014 0.04879,0.06506 0.01156,0.02701 -0.02291,0.139734 0,0.162648 0.0077,0.0077 0.02283,-0.0048 0.03253,0 0.01627,0.01084 0.03253,0.02169 0.04879,0.03253 0,0.0054 -0.0038,0.01243 0,0.01626 0.01167,0.01166 0.154956,0.04791 0.16265,0.03253 0.03737,-0.07475 -0.204655,-0.07454 -0.227708,-0.09759 -0.02519,-0.0252 0.163777,-0.01739 0.178914,-0.03253 0.02855,-0.02855 -0.0317,-0.04108 -0.04879,-0.03253 -0.06524,0.03262 -0.104675,0.09077 -0.146384,0.146383 -0.0085,0.01139 -0.07102,0.03253 -0.03253,0.03253 0.0054,0 -0.0024,-0.01142 0,-0.01627 0.0087,-0.01748 0.01871,-0.03497 0.03253,-0.04879 0.0086,-0.0086 0.02397,-0.0077 0.03253,-0.01627 0.0062,-0.0062 0.08536,-0.134274 0.09759,-0.09759 0.0191,0.0573 0,0.332176 0,0.422884 0,0.0057 0.0062,0.0751 0,0.08132 -0.0054,0.0054 -0.01085,-0.01084 -0.01627,-0.01626 -0.01918,-0.01917 -0.0425,-0.03376 -0.06506,-0.04879 -0.0045,-0.003 -0.01384,0.0048 -0.01627,0 -0.0048,-0.0097 0.0048,-0.02283 0,-0.03253 -0.0054,-0.01084 -0.02711,-0.0054 -0.03253,-0.01627 -0.0055,-0.01094 0.01011,-0.05099 0.01627,-0.03253 0.0085,0.02564 0.0069,0.102536 0,0.130119 -0.0042,0.01663 -0.03341,0.04879 -0.01627,0.04879 0.05716,0 0.127048,-0.146383 0.162647,-0.146383 0.02711,0 -0.02711,0.04879 -0.04879,0.06506 -0.1456,0.1092 -0.02085,-0.01001 -0.146384,0.09759 -0.0055,0.0047 -0.08212,0.09759 -0.09759,0.09759 -0.02711,0 0.03115,-0.04448 0.04879,-0.06506 0.05975,-0.0697 0.111879,-0.152772 0.130119,-0.243971 0.0016,-0.0075 -0.0097,0.01232 -0.01627,0.01626 -0.0208,0.01248 -0.04337,0.02169 -0.06506,0.03253 -0.02117,-0.0091 -0.03548,0.02587 -0.04879,0.03253 -0.0048,0.0024 -0.01627,-0.0054 -0.01627,0 0,0.03637 0.06919,-0.02607 0.09759,-0.04879 0.0042,-0.0034 0.0011,-0.02158 0,-0.01627 -0.0065,0.03234 -0.0029,0.06745 -0.01627,0.09759 -0.0172,0.03869 -0.05592,0.06371 -0.08132,0.09759 -0.0013,0.0017 -0.02733,0.04812 -0.03253,0.03253 -0.01995,-0.05986 0.0095,-0.100282 0.03253,-0.146383 0.01355,-0.02708 -0.04167,-0.01864 -0.04879,-0.01627 -0.03963,0.01321 -0.02995,0.07875 -0.01627,0.06506 0.01119,-0.01119 -0.0035,-0.02899 0.03253,-0.06506"
       id="path10" />
    <path
       style="fill:#ebd7a9;fill-opacity:1;stroke:none;stroke-width:0.626999;stroke-dasharray:none;stroke-opacity:1"
       d="m 61.064722,80.138157 c 0.0217,0.01084 0.04337,0.02169 0,0 z"
       id="path11" />
    <path
       style="fill:#ebd7a9;fill-opacity:1;stroke:none;stroke-width:0.626999;stroke-dasharray:none;stroke-opacity:1"
       d="m 61.129783,80.203216 c 0,0.02169 -0.0217,0.06506 0,0.06506 0.0217,0 0,-0.08675 0,-0.06506 0,0.04337 0.02151,0.09246 0,0.130118 -0.01561,0.0273 -0.126783,-0.06016 -0.146383,-0.06506 -0.02996,-0.0075 -0.06836,0.0097 -0.09759,0 -0.0073,-0.0024 -0.009,-0.01384 -0.01627,-0.01627 -0.02059,-0.0069 -0.04449,0.0069 -0.06506,0 -0.0163,-0.0054 -0.09014,-0.04744 -0.08132,-0.06506 0.01349,-0.02698 0.148391,-0.02577 0.162647,-0.01626 0.009,0.006 -0.0034,0.02224 0,0.03253 0.0077,0.02307 0.03949,0.02322 0.04879,0.03253 0.0158,0.01581 -0.01627,0.0835 -0.01627,0.03253"
       id="path12" />
    <path
       style="fill:#ebd7a9;fill-opacity:1;stroke:none;stroke-width:0.626999;stroke-dasharray:none;stroke-opacity:1"
       d="m 61.552667,80.008038 -0.666856,0.276501"
       id="path13" />
    <path
       style="fill:#ebd7a9;fill-opacity:1;stroke:none;stroke-width:0.626999;stroke-dasharray:none;stroke-opacity:1"
       d="m 61.129783,80.203216 -0.03253,-0.04879"
       id="path14" />
    <path
       style="fill:#ebd7a9;fill-opacity:1;stroke:none;stroke-width:0.626999;stroke-dasharray:none;stroke-opacity:1"
       d="m 61.390019,79.764067 c -0.512802,-0.219772 -0.387572,-0.190416 -0.927092,-0.325296 -0.01082,-0.0027 -0.246919,-0.05545 -0.292766,-0.03253 -0.02474,0.01236 0.05544,0.0066 0.08132,0.01626 0.06134,0.023 0.119637,0.05343 0.178912,0.08132 0.103169,0.04855 0.201475,0.107272 0.30903,0.146383 0.02101,0.0076 0.04507,0.0063 0.06506,0.01627 0.03497,0.01748 0.06341,0.04607 0.09759,0.06506 0.01135,0.0063 0.113853,0.04507 0.113853,0.04879 0,0.03048 -0.12767,0.04256 -0.146381,0.04879 -0.01627,0.0054 -0.06594,0.01627 -0.04879,0.01627 0.07046,0 0.366739,0.01871 0.422884,0 0.05295,-0.01765 0.171347,-0.0314 0.146383,-0.08132 -0.0218,-0.04358 -0.657989,-0.09808 -0.731914,-0.04879 -0.01355,0.009 -0.0073,0.03425 0,0.04879 0.0616,0.123205 0.326335,0.03357 0.357823,0.06506 0.03453,0.03453 -0.08326,0.09372 -0.06506,0.130118 0.02769,0.05539 0.137232,0.05591 0.178914,0.09759 0.03089,0.03089 0.01627,0.108167 0.01627,0.146382 0,0.0057 0.0062,0.0751 0,0.08132 -0.0501,0.0501 -0.0589,-0.135173 -0.04879,-0.130118 0.04993,0.02496 0.06506,0.08119 0.06506,0.130118 0,0.02169 0.0031,0.08653 0,0.06506 -0.05602,-0.392167 0.0063,0.05943 -0.01627,-0.211442 -0.0021,-0.07165 -0.02609,-0.140425 -0.03253,-0.211442 -0.0086,-0.09438 5.3e-4,-0.181798 -0.01627,-0.276501 -0.01053,-0.05969 -0.02331,-0.119002 -0.03253,-0.178912 -0.0013,-0.0092 7.94e-4,-0.113854 0,-0.113854 -0.03625,0 -0.04277,0.06326 -0.04879,0.08132 -0.01651,0.04952 -0.142214,0.475847 -0.09759,0.520473 0.01119,0.01119 0.02899,-0.0035 0.06506,0.03253 0.03176,0.03176 0.06285,0.06064 0.08132,0.09759 0.01095,0.02192 -0.0072,0.13915 -0.03253,0.113853 -0.01513,-0.01512 0.01619,-0.113286 0.01627,-0.113853 0.0027,-0.02152 -0.0043,-0.04379 0,-0.06506 0.0013,-0.006 0.03028,-0.07008 0.03253,-0.08132 0.0075,-0.03772 0.0054,-0.303646 -0.01627,-0.325295 -0.0038,-0.0038 0.0013,0.011 0,0.01627 -0.0096,0.03829 -0.02397,0.07532 -0.03253,0.113853 -0.02066,0.09299 0.01868,0.199335 0,0.292766 -0.0058,0.02903 -0.03253,0.07026 -0.03253,0.09759 0,0.05205 -0.008,0.01603 -0.01627,0.03253 -0.0041,0.0081 0.01378,0.06382 -0.01627,0.04879 -0.01378,-0.0069 -0.03033,-0.03779 -0.03253,-0.04879 -0.0045,-0.02234 -0.01167,-0.432081 0,-0.455414 0.01683,-0.03366 0.01627,-0.05648 0.01627,-0.09759 0,-0.02423 0.02196,-0.142594 0.06506,-0.113854 0.03977,0.02651 0.06054,0.402101 0,0.341561 -0.02455,-0.02456 -0.03183,-0.122502 -0.03253,-0.130119 -0.0027,-0.02951 -0.0136,-0.281842 0,-0.30903 0.0096,-0.01921 0.118933,0.04269 0.130117,0.06506 0.0094,0.01885 -0.05019,-0.04739 -0.06506,-0.03253 -0.0054,0.0054 0.01283,0.0094 0.01627,0.01627 0.01847,0.03693 0.03346,0.07552 0.04879,0.113853 0.03063,0.07658 -0.0061,0.07936 -0.01627,0.04879 -0.0086,-0.02572 0,-0.05422 0,-0.08132 0,-0.04271 0.0051,-0.08185 0.04879,-0.01627 0.003,0.0045 -0.0038,0.01243 0,0.01627 0.0038,0.0038 0.01243,-0.0038 0.01627,0 0.0038,0.0038 0.0054,0.01627 0,0.01627 -0.0077,0 -0.01135,-0.01038 -0.01627,-0.01627 -0.02222,-0.02667 -0.04423,-0.05355 -0.06506,-0.08132 -0.130119,-0.173491 0.07048,0.07048 -0.08132,-0.08132 -0.02236,-0.02235 -0.02983,-0.05603 -0.04879,-0.08132 -0.0032,-0.0043 -0.04879,-0.06614 -0.04879,-0.04879 0,0.0054 0.01326,-0.0045 0.01627,0 0.01532,0.02296 0.122357,0.251731 0.09759,0.276501 -0.04761,0.04761 -0.180097,-0.112668 -0.130117,-0.162648 0.02384,-0.02383 0.113853,0.05222 0.113853,0.03253 0,-0.01534 -0.02567,-0.01881 -0.03253,-0.03253 -0.0048,-0.0097 0.0077,-0.02486 0,-0.03253 -0.0038,-0.0038 -0.01244,0.0038 -0.01627,0 -0.02005,-0.02005 0.05949,-0.02183 0.03253,-0.04879 -0.0024,-0.0023 -0.07559,-0.0057 -0.08132,0 -0.03365,0.03365 0.05143,-0.0013 -0.01627,0.03253 -0.0097,0.0048 -0.02487,-0.0077 -0.03253,0 -0.02643,0.02644 0.09069,0.0094 0.09759,0.01626 0.0038,0.0038 -0.0054,0.01627 0,0.01627 0.02349,0 -0.06196,-0.08132 -0.113853,-0.08132 -0.01085,0 -0.04337,0 -0.03253,0 0.04303,0 0.0266,-0.01627 0.08132,-0.01627"
       id="path15" />
    <path
       style="fill:#ebd7a9;fill-opacity:1;stroke:none;stroke-width:0.626999;stroke-dasharray:none;stroke-opacity:1"
       d="m 187.50607,79.569088 c -0.015,0.0011 -0.0284,-0.0039 -0.0431,-0.0058 -0.003,-3.57e-4 -0.006,7.92e-4 -0.009,0 -0.004,-0.0012 -0.007,-0.0046 -0.0115,-0.0058 -0.01,-0.0028 -0.0218,-4.1e-4 -0.0316,-0.0029 -0.006,-0.0015 -0.0112,-0.0071 -0.0173,-0.0086 -0.0164,-0.0041 -0.0295,-0.01176 -0.046,-0.01725 -0.0172,-0.0057 0.007,7.35e-4 -0.0115,-0.0086 -0.002,-8.57e-4 -0.004,0.0011 -0.006,0 -0.02,-0.01338 0.0241,0.0028 -0.0115,-0.0115 -0.002,-7.12e-4 -0.004,0.0011 -0.006,0 -0.002,-0.0012 -0.001,-0.0046 -0.003,-0.0057 -0.002,-0.0011 -0.004,4.65e-4 -0.006,0 -0.01,-0.0024 -0.0164,-0.01201 -0.0259,-0.01438 -0.002,-4.66e-4 -0.004,8.57e-4 -0.006,0 -8e-4,-4.29e-4 7.9e-4,-0.0022 0,-0.0029 -0.001,-0.0012 -0.007,5.43e-4 -0.009,0 -0.007,-0.0024 -0.0377,-0.01896 -0.0431,-0.023 -0.002,-0.0016 -0.003,-0.0045 -0.006,-0.0058 -0.002,-8.57e-4 -0.004,6.06e-4 -0.006,0 -0.002,-7.88e-4 -0.0212,-0.01744 -0.023,-0.02013 -0.001,-0.0018 -0.001,-0.0046 -0.003,-0.0057 -0.002,-0.0011 -0.004,6.06e-4 -0.006,0 -0.004,-0.0012 -0.009,-0.0088 -0.0115,-0.0115 -0.006,-0.0063 -0.014,-0.01113 -0.0201,-0.01725 -7.9e-4,-6.78e-4 7.9e-4,-0.0022 0,-0.0029 -7.9e-4,-6.77e-4 -0.002,6.78e-4 -0.003,0 -8e-4,-6.77e-4 7.9e-4,-0.0022 0,-0.0029 -0.001,-0.0013 -0.0136,-0.0079 -0.0144,-0.0086 -7.9e-4,-6.78e-4 0.001,-0.0029 0,-0.0029 -0.002,0 0.003,0.05752 0.003,0.06038 0,0.0089 8e-4,0.01478 0.003,0.023 0.003,0.01288 0,0.06088 0,0.07763 0,0.01044 0.002,0.02427 0,0.0345 -0.002,0.01056 -0.008,0.02133 -0.0115,0.03163 -0.003,0.0085 -0.004,0.01752 -0.006,0.02588 -8e-4,0.0034 -0.005,0.0052 -0.006,0.0086 -7.9e-4,0.0038 5.3e-4,0.0077 0,0.0115 -7.9e-4,0.0051 -0.005,0.0093 -0.006,0.01438 -0.002,0.0088 0,0.01979 0,0.02875 0,0.04876 0.006,0.09685 0.0172,0.143761 0.002,0.0086 -0.001,0.01999 0,0.02875 0.001,0.0095 0.007,0.03887 0.0115,0.04313 0.008,0.0077 0.0909,0.0029 0.10639,0.0029 0.033,0 -0.002,-0.0012 0.0259,0.0029 0.0197,0.0028 0.0406,-0.0022 0.0604,0 0.004,4.36e-4 0.008,0.0024 0.0115,0.0029 0.0158,0.002 0.033,0 0.0489,0 0.0316,0 0.0633,0 0.0949,0 0.0104,0 0.0598,6e-4 0.0661,-0.0058 0.003,-0.0034 -0.002,-0.01481 -0.003,-0.01725 -0.004,-0.008 -0.0152,-0.01335 -0.023,-0.01725 -0.0101,-0.0051 -0.0187,-0.02454 -0.0201,-0.0345 -0.003,-0.02161 -0.001,-0.05063 0.003,-0.07188 0.002,-0.0095 0.006,-0.01947 0.009,-0.02875 0.003,-0.01045 -0.005,-0.02789 0,-0.03738 5.3e-4,-0.0012 0.002,-0.0016 0.003,-0.0029 0.002,-0.0055 0,-0.01423 0,-0.02013 0,-0.0058 0.002,-0.03866 0,-0.04313 -0.004,-0.0079 -5.3e-4,-0.0029 -0.003,-0.01438 -0.002,-0.0081 -0.005,-0.01349 -0.009,-0.02013 -0.002,-0.0046 0.002,-0.01235 0,-0.01725 -0.005,-0.01595 -0.005,0.0094 0,-0.02588 z"
       id="path16" />
    <path
       style="fill:#ebd7a9;fill-opacity:1;stroke:none;stroke-width:0.626999;stroke-dasharray:none;stroke-opacity:1"
       d="m 187.51182,79.77898 c -0.01,0.01566 0,0.02366 0,0.04025 0,0.0062 0.002,0.03275 0,0.03738 -0.001,0.0024 -0.0132,0.0052 -0.0144,0.0029 -0.004,-0.0073 0.002,-0.01873 0.003,-0.02588 5.2e-4,-0.003 0.002,-0.02649 0,-0.02875 -8e-4,-6.77e-4 -0.002,6.77e-4 -0.003,0 -7.9e-4,-6.77e-4 5.3e-4,-0.002 0,-0.0029 -0.001,-0.0024 -0.005,-0.0033 -0.006,-0.0058 -0.002,-0.0049 -7.9e-4,-0.0094 -0.006,-0.01438"
       id="path17" />
    <path
       style="fill:#ebd7a9;fill-opacity:1;stroke:none;stroke-width:0.626999;stroke-dasharray:none;stroke-opacity:1"
       d="m 187.56645,79.810607 -0.12076,0.0115"
       id="path18" />
    <path
       style="fill:#ebd7a9;fill-opacity:1;stroke:none;stroke-width:0.626999;stroke-dasharray:none;stroke-opacity:1"
       d="m 187.46869,79.830734 c 0.008,0 0.0153,0 0.023,0 0.006,0 0.0115,0 0.0172,0 0.001,0 0.004,0 0.003,0 -0.0326,0 -0.0652,0 -0.0978,0 -0.002,0 0.004,0 0.006,0 0.008,0 0.0153,0 0.023,0 0.0177,0 0.0372,8.57e-4 0.0546,-0.0029 0.004,-8.97e-4 0.007,-0.0046 0.0115,-0.0058 0.004,-0.0011 0.009,0.0027 0.0115,0 0.006,-0.006 -0.018,-0.0087 -0.0403,-0.0115 -0.007,-8.41e-4 -0.0134,-0.002 -0.0201,-0.0029 -10e-4,-1.19e-4 -0.004,4.29e-4 -0.003,0 0.005,-0.0023 0.009,-0.0048 0.0144,-0.0058 0.006,-0.001 0.0115,0 0.0172,0 0.004,0 0.008,0 0.0115,0 0.0328,0 -0.0195,-0.0047 -0.023,0.0058 -0.003,0.0078 -0.0148,0.01767 -0.009,0.023 0.007,0.0064 0.019,-0.0068 0.0288,-0.0058 0.0107,0.0012 0.0254,0.01332 0.0345,0.02013"
       id="path19" />
    <path
       style="fill:#ebd7a9;fill-opacity:1;stroke:none;stroke-width:0.626999;stroke-dasharray:none;stroke-opacity:1"
       d="m 187.6642,79.799106 -0.59804,-0.342152"
       id="path20" />
    <path
       style="fill:#ebd7a9;fill-opacity:1;stroke:none;stroke-width:0.626999;stroke-dasharray:none;stroke-opacity:1"
       d="m 187.11504,79.554712 c 0.008,0.0021 0.0514,0.01029 0.0575,0.0058 0.002,-0.0018 0.002,-0.0057 0.003,-0.0086 2.7e-4,-0.0019 10e-4,-0.0043 0,-0.0058 -0.01,-0.01221 -0.0249,-0.01058 -0.0259,-0.0115 -0.001,-0.0014 0,-0.0038 0,-0.0058"
       id="path21" />
    <path
       style="fill:#ebd7a9;fill-opacity:1;stroke:none;stroke-width:0.626999;stroke-dasharray:none;stroke-opacity:1"
       d="m 187.11791,79.517334 c 0.0435,0.0018 0.0812,-0.0053 0.0345,-0.0345 -0.008,-0.0053 -0.0155,-0.0115 -0.0259,-0.0115 -0.001,0 0.002,0 0.003,0 0.006,0 0.0121,-0.0026 0.0172,0 0.007,0.0037 8e-4,0.01983 0.003,0.02588 0.001,0.0033 0.004,0.0054 0.006,0.0086 0.001,0.0025 0.008,0.03325 0,0.0345 -0.0312,0.0052 -0.0518,-0.04132 -0.0518,-0.06613 0,-0.0019 -0.001,-0.0044 0,-0.0057 0.0115,-0.01152 0.0405,0.05184 0.0431,0.0575 0.007,0.01482 0.0108,0.01856 0.0144,0.0345 7.9e-4,0.0041 0.002,0.02135 0,0.02588 -1.3e-4,2.57e-4 -0.0177,0.0013 -0.023,0 -0.008,-0.0019 -0.0249,-0.0099 -0.0316,-0.01438 -0.002,-0.0012 -0.006,-0.005 -0.006,-0.0029 0,1.15e-4 0.0146,-2.94e-4 0.0172,0 0.0208,0.0023 0.025,0.0099 0.0374,-0.0086"
       id="path22" />
    <path
       style="fill:#ebd7a9;fill-opacity:1;stroke:none;stroke-width:0.626999;stroke-dasharray:none;stroke-opacity:1"
       d="m 187.26455,79.72435 -0.11214,-0.238644"
       id="path23" />
    <path
       style="fill:#ebd7a9;fill-opacity:1;stroke:none;stroke-width:0.626999;stroke-dasharray:none;stroke-opacity:1"
       d="m 187.13229,79.485706 c 0.004,0 0.008,-3.17e-4 0.0115,0 0.0311,0.0026 0.0419,9.18e-4 0.0374,0.03738 -4e-5,3.41e-4 -0.004,0.01321 -0.006,0.01438 -0.002,0.0011 -0.004,-8.57e-4 -0.006,0 -0.002,0.0012 -0.003,0.0044 -0.006,0.0058 -0.005,0.0031 -0.0114,0.0041 -0.0172,0.0058 -0.0121,0.0034 -0.0608,0.0086 -0.0144,0.0086 0.005,0 0.01,0 0.0144,0"
       id="path24" />
    <path
       style="fill:#ebd7a9;fill-opacity:1;stroke:none;stroke-width:0.626999;stroke-dasharray:none;stroke-opacity:1"
       d="m 187.2703,79.669721 -0.15239,0.345028"
       id="path25" />
  </g>
</svg>
