<?xml version="1.0" encoding="UTF-8" standalone="no"?>
<!-- Created with Inkscape (http://www.inkscape.org/) -->

<svg
   width="107.46468mm"
   height="107.46449mm"
   viewBox="0 0 107.46468 107.46449"
   version="1.1"
   id="svg1"
   xmlns="http://www.w3.org/2000/svg"
   xmlns:svg="http://www.w3.org/2000/svg">
  <defs
     id="defs1" />
  <g
     id="layer1"
     transform="translate(-49.315983,-91.148995)">
    <rect
       style="fill:#ffffff;fill-opacity:1;stroke-width:0.179876"
       id="rect1"
       width="107.46468"
       height="9.9368029"
       x="49.315983"
       y="140.21933"
       ry="4.9684014"
       rx="53.732342" />
    <rect
       style="fill:#ffffff;fill-opacity:1;stroke-width:0.179876"
       id="rect1-8"
       width="107.46468"
       height="9.9368029"
       x="91.343506"
       y="-108.12948"
       ry="4.9684014"
       rx="53.732342"
       transform="rotate(89.892059)" />
    <rect
       style="fill:#ffffff;fill-opacity:1;stroke-width:0.179876"
       id="rect1-8-1"
       width="107.46468"
       height="9.9368029"
       x="121.77028"
       y="25.62026"
       ry="4.9684014"
       rx="53.732342"
       transform="rotate(44.647351)" />
    <rect
       style="fill:#ffffff;fill-opacity:1;stroke-width:0.0445621"
       id="rect1-8-1-23"
       width="26.622742"
       height="2.4617586"
       x="160.42787"
       y="72.80674"
       ry="1.2308793"
       rx="13.311371"
       transform="matrix(0.71067285,0.70352263,-0.70195905,0.71221731,0,0)" />
    <rect
       style="fill:#ffffff;fill-opacity:1;stroke-width:0.0445621"
       id="rect1-8-1-23-8"
       width="26.622742"
       height="2.4617586"
       x="164.29541"
       y="-16.082611"
       ry="1.2308793"
       rx="13.311371"
       transform="matrix(0.71067285,0.70352263,-0.70195905,0.71221731,0,0)" />
    <rect
       style="fill:#ffffff;fill-opacity:1;stroke-width:0.179876"
       id="rect1-8-1-2"
       width="107.46468"
       height="9.9368029"
       x="-30.099731"
       y="-181.11151"
       ry="4.9684014"
       rx="53.732342"
       transform="rotate(136.65007)" />
    <rect
       style="fill:#ffffff;fill-opacity:1;stroke-width:0.0445621"
       id="rect1-8-1-23-89"
       width="26.622742"
       height="2.4617586"
       x="-37.63332"
       y="219.81732"
       ry="1.2308793"
       rx="13.311371"
       transform="matrix(0.72154309,-0.69236953,0.69395364,0.72001969,0,0)" />
    <rect
       style="fill:#ffffff;fill-opacity:1;stroke-width:0.0445621"
       id="rect1-8-1-23-89-4"
       width="26.622742"
       height="2.4617586"
       x="-40.046886"
       y="131.95442"
       ry="1.2308793"
       rx="13.311371"
       transform="matrix(0.72154309,-0.69236953,0.69395364,0.72001969,0,0)" />
    <rect
       style="fill:#ffffff;fill-opacity:1;stroke-width:0.0626373"
       id="rect1-8-1-23-89-3"
       width="32.147289"
       height="4.0279808"
       x="-153.2616"
       y="58.084053"
       ry="2.0139904"
       rx="16.073645"
       transform="matrix(-0.0093053,-0.9999567,0.99140854,0.13080175,0,0)" />
    <rect
       style="fill:#ffffff;fill-opacity:1;stroke-width:0.0626373"
       id="rect1-8-1-23-89-3-8"
       width="32.147289"
       height="4.0279808"
       x="-141.92902"
       y="144.96509"
       ry="2.0139904"
       rx="16.073645"
       transform="matrix(-0.0093053,-0.9999567,0.99140854,0.13080175,0,0)" />
    <rect
       style="fill:#ffffff;fill-opacity:1;stroke-width:0.0626373"
       id="rect1-8-1-23-89-3-7"
       width="32.147289"
       height="4.0279808"
       x="113.51013"
       y="184.61366"
       ry="2.0139904"
       rx="16.073645"
       transform="matrix(0.99999913,0.00132122,-0.14132953,0.98996261,0,0)" />
    <rect
       style="fill:#ffffff;fill-opacity:1;stroke-width:0.0626373"
       id="rect1-8-1-23-89-3-7-6"
       width="32.147289"
       height="4.0279808"
       x="102.35789"
       y="103.3744"
       ry="2.0139904"
       rx="16.073645"
       transform="matrix(0.99999913,0.00132122,-0.14132953,0.98996261,0,0)" />
  </g>
</svg>
