<?xml version="1.0" encoding="UTF-8" standalone="no"?>
<!-- Created with Inkscape (http://www.inkscape.org/) -->

<svg
   width="167.10779mm"
   height="132.9379mm"
   viewBox="0 0 167.10778 132.93789"
   version="1.1"
   id="svg1"
   inkscape:version="1.4.2 (f4327f4, 2025-05-13)"
   sodipodi:docname="Papai Noel.svg"
   xmlns:inkscape="http://www.inkscape.org/namespaces/inkscape"
   xmlns:sodipodi="http://sodipodi.sourceforge.net/DTD/sodipodi-0.dtd"
   xmlns="http://www.w3.org/2000/svg"
   xmlns:svg="http://www.w3.org/2000/svg">
  <sodipodi:namedview
     id="namedview1"
     pagecolor="#ffffff"
     bordercolor="#000000"
     borderopacity="0.25"
     inkscape:showpageshadow="2"
     inkscape:pageopacity="0.0"
     inkscape:pagecheckerboard="0"
     inkscape:deskcolor="#d1d1d1"
     inkscape:document-units="mm"
     inkscape:zoom="0.71891835"
     inkscape:cx="438.15824"
     inkscape:cy="150.92117"
     inkscape:window-width="1920"
     inkscape:window-height="1009"
     inkscape:window-x="-8"
     inkscape:window-y="-8"
     inkscape:window-maximized="1"
     inkscape:current-layer="layer1" />
  <defs
     id="defs1" />
  <g
     inkscape:label="Warstwa 1"
     inkscape:groupmode="layer"
     id="layer1"
     transform="translate(-32.764011,-87.159256)">
    <rect
       style="fill:#03b810;fill-opacity:1;stroke:none;stroke-width:0.141306"
       id="rect17-2-4"
       width="9.2026529"
       height="23.635347"
       x="21.289167"
       y="114.00557"
       transform="matrix(0.96979691,-0.24391383,0.26456764,0.96436713,0,0)" />
    <path
       id="rect13-9-8-6-1"
       style="fill:#fe0a24;fill-opacity:1;stroke:none;stroke-width:0.200831"
       d="m 56.623248,102.93271 -2.604515,0.66768 2.117773,7.60637 -3.584664,0.9913 2.065553,7.40795 3.582015,-0.99062 2.32252,8.34156 2.604338,-0.66835 -2.335821,-8.3894 3.128516,-0.86497 -2.065549,-7.40792 -3.125878,0.86424 z" />
    <path
       id="path14-0-9-3-0-2"
       style="fill:#fd0f0f;fill-opacity:1;stroke:none;stroke-width:0.274727"
       d="m 57.897159,104.40497 a 1.659979,2.4572719 12.848252 0 0 -0.09208,-3.35288 1.659979,2.4572719 12.848252 0 0 -2.414039,0.71769 1.659979,2.4572719 12.848252 0 0 -0.327739,2.60798 1.2437216,1.8630701 13.751325 0 1 0.336804,-1.58973 1.2437216,1.8630701 13.751325 0 1 1.819068,-0.56288 1.2437216,1.8630701 13.751325 0 1 0.05332,2.53169 1.2437216,1.8630701 13.751325 0 1 -0.733158,0.73959 1.659979,2.4572719 12.848252 0 0 1.357826,-1.09147 z" />
    <path
       id="path14-20-1-0"
       style="fill:#fd1227;fill-opacity:1;stroke:none;stroke-width:0.260961"
       d="m 54.160603,101.9324 a 2.3737222,1.5505013 49.970098 0 0 -2.418693,0.22903 2.3737222,1.5505013 49.970098 0 0 1.278248,2.92304 2.3737222,1.5505013 49.970098 0 0 2.006134,0.30957 1.801005,1.1608703 49.237336 0 1 -1.26569,-0.35603 1.801005,1.1608703 49.237336 0 1 -0.979311,-2.20187 1.801005,1.1608703 49.237336 0 1 1.831361,-0.15313 1.801005,1.1608703 49.237336 0 1 0.76897,0.86961 2.3737222,1.5505013 49.970098 0 0 -1.221019,-1.62022 z" />
    <rect
       style="fill:#b80303;fill-opacity:1;stroke:none;stroke-width:0.170971"
       id="rect17-2"
       width="16.825605"
       height="18.924824"
       x="36.374451"
       y="120.74967"
       transform="rotate(-11.58303)" />
    <path
       id="rect13-9-8-6"
       style="fill:#d164fe;fill-opacity:1;stroke:none;stroke-width:0.243021"
       d="m 70.731208,108.48102 -4.814265,0.99673 1.322866,6.18181 -6.649015,1.43394 1.293661,6.02003 6.644117,-1.43287 1.45083,6.77929 4.814166,-0.99732 -1.459117,-6.81816 5.802867,-1.25131 -1.293667,-6.02001 -5.797969,1.25023 z" />
    <path
       id="path14-0-9-3-0"
       style="fill:#5a0187;fill-opacity:1;stroke:none;stroke-width:0.249595"
       d="m 70.754116,109.09507 a 1.5522481,2.1690074 36.881038 0 0 0.268264,-2.72397 1.5522481,2.1690074 36.881038 0 0 -2.529989,0.58246 1.5522481,2.1690074 36.881038 0 0 -0.614399,2.11869 1.159855,1.6489787 37.10932 0 1 0.513726,-1.29144 1.159855,1.6489787 37.10932 0 1 1.908825,-0.45683 1.159855,1.6489787 37.10932 0 1 -0.219036,2.05681 1.159855,1.6489787 37.10932 0 1 -0.824661,0.60066 1.5522481,2.1690074 36.881038 0 0 1.497265,-0.88639 z" />
    <path
       id="path14-20-1"
       style="fill:#740187;fill-opacity:1;stroke:none;stroke-width:0.249595"
       d="m 66.748669,107.84775 a 2.1701742,1.5514135 25.212888 0 0 -2.742834,0.24208 2.1701742,1.5514135 25.212888 0 0 1.031572,2.36456 2.1701742,1.5514135 25.212888 0 0 2.206395,0.20825 1.6497707,1.1592982 25.492571 0 1 -1.36997,-0.26297 1.6497707,1.1592982 25.492571 0 1 -0.795483,-1.78081 1.6497707,1.1592982 25.492571 0 1 2.074006,-0.16668 1.6497707,1.1592982 25.492571 0 1 0.742618,0.6947 2.1701742,1.5514135 25.212888 0 0 -1.146305,-1.29911 z" />
    <rect
       style="fill:#fd6b6b;fill-opacity:1;stroke:none;stroke-width:0.227"
       id="rect17"
       width="22.2658"
       height="25.210037"
       x="-4.4462924"
       y="121.04697"
       transform="rotate(-17.797036)" />
    <path
       id="rect13-9-8"
       style="fill:#01afbc;fill-opacity:1;stroke:none;stroke-width:0.322663"
       d="m 46.681317,111.75969 -6.190607,2.00099 2.642772,7.99588 -8.541627,2.83919 2.580726,7.78589 8.535243,-2.83735 2.898312,8.76868 6.190383,-2.00176 -2.914886,-8.81897 7.454621,-2.47776 -2.580734,-7.78587 -7.448241,2.47591 z" />
    <path
       id="path14-0-9-3"
       style="fill:#017387;fill-opacity:1;stroke:none;stroke-width:0.331391"
       d="m 46.801039,112.56929 a 2.0616956,2.8787695 30.082385 0 0 -0.04429,-3.64383 2.0616956,2.8787695 30.082385 0 0 -3.244737,1.12918 2.0616956,2.8787695 30.082385 0 0 -0.49955,2.89159 1.540562,2.1885115 30.337852 0 1 0.487727,-1.78227 1.540562,2.1885115 30.337852 0 1 2.44555,-0.87494 1.540562,2.1885115 30.337852 0 1 0.01176,2.75369 1.540562,2.1885115 30.337852 0 1 -0.997709,0.91188 2.0616956,2.8787695 30.082385 0 0 1.841242,-1.38531 z" />
    <path
       id="path14-20"
       style="fill:#017387;fill-opacity:1;stroke:none;stroke-width:0.331391"
       d="m 41.347552,111.48517 a 2.8787695,2.0616956 19.56394 0 0 -3.574509,0.70873 2.8787695,2.0616956 19.56394 0 0 1.702564,2.98406 2.8787695,2.0616956 19.56394 0 0 2.934195,-0.0367 2.1885115,1.540562 19.819407 0 1 -1.841363,-0.15421 2.1885115,1.540562 19.819407 0 1 -1.306699,-2.24474 2.1885115,1.540562 19.819407 0 1 2.70527,-0.51425 2.1885115,1.540562 19.819407 0 1 1.07869,0.81449 2.8787695,2.0616956 19.56394 0 0 -1.698146,-1.55742 z" />
    <path
       id="rect4-7"
       style="fill:#575757;fill-opacity:1;stroke:#000000;stroke-width:0.123282"
       inkscape:transform-center-x="-1.3452816"
       inkscape:transform-center-y="9.4338131"
       d="m 82.764815,172.23572 -4.304053,9.78145 15.916163,23.55996 -6.987529,1.95509 c -0.05027,0.0141 -0.100041,0.0282 -0.150286,0.042 l 0.124598,-0.26239 -20.852207,-29.69625 -4.699108,9.89038 15.375853,21.89738 c -12.572313,1.0748 -22.85186,-2.77613 -24.916702,-10.15592 -0.159202,-0.56897 -0.265779,-1.14511 -0.321681,-1.72697 l -9.366801,2.62081 c -0.538068,2.31523 -0.532158,4.62644 0.09177,6.85636 3.186377,11.38816 21.242547,16.22165 40.484611,10.83778 l 87.187067,-24.3947 c 19.24208,-5.38387 32.16748,-18.88592 28.98111,-30.27408 -0.62393,-2.22993 -1.81783,-4.20873 -3.47928,-5.90854 l -7.00446,1.95982 c 0.25412,0.5264 0.46207,1.07417 0.62126,1.64314 2.60346,9.30478 -8.86722,20.59165 -25.71906,25.30674 l -7.85144,2.19681 0.37439,-0.76961 -21.07337,-29.63329 -4.83099,9.92728 16.38114,23.03544 -8.5611,2.39537 0.12093,-0.26779 -20.41049,-29.82254 -4.43508,9.81758 15.61811,22.82073 -26.65373,7.45764 0.52982,-1.20376 z" />
    <ellipse
       style="fill:#e30000;fill-opacity:1;stroke:#000000;stroke-width:0.227"
       id="path4"
       cx="71.992584"
       cy="162.44453"
       rx="29.626392"
       ry="28.890335"
       transform="rotate(-15.631467)" />
    <rect
       style="fill:#0115ad;fill-opacity:1;stroke:none;stroke-width:0.150471"
       id="rect12-6"
       width="17.317301"
       height="16.066492"
       x="-13.637418"
       y="146.20805"
       transform="matrix(0.94213355,-0.33523778,0.35494192,0.93488835,0,0)" />
    <rect
       style="fill:#030187;fill-opacity:1;stroke:none;stroke-width:0.227"
       id="rect15"
       width="32.204247"
       height="8.5877981"
       x="3.217958"
       y="137.86487"
       transform="rotate(-15.631467)" />
    <rect
       style="fill:#e5f501;fill-opacity:1;stroke:none;stroke-width:0.308838"
       id="rect16-6"
       width="2.2770932"
       height="32.927635"
       x="-143.4503"
       y="2.0729604"
       transform="matrix(-0.2741901,-0.96167551,0.96290868,-0.26982748,0,0)" />
    <rect
       style="fill:#e5f501;fill-opacity:1;stroke:none;stroke-width:0.164161"
       id="rect16"
       width="2.2770679"
       height="9.3034477"
       x="17.986368"
       y="137.53957"
       transform="rotate(-15.631467)" />
    <rect
       style="fill:#feec03;fill-opacity:1;stroke:none;stroke-width:0.214533"
       id="rect12"
       width="25.646624"
       height="22.05232"
       x="33.554424"
       y="136.51749"
       transform="matrix(0.98921338,-0.14648171,0.15926287,0.98723621,0,0)" />
    <path
       id="path14-2"
       style="fill:#878301;fill-opacity:1;stroke:none;stroke-width:0.331391"
       d="m 54.238198,125.58801 a 2.8787695,2.0616956 21.72951 0 0 -3.598736,0.57314 2.8787695,2.0616956 21.72951 0 0 1.588589,3.04627 2.8787695,2.0616956 21.72951 0 0 2.933485,0.0742 2.1885115,1.540562 21.984977 0 1 -1.834224,-0.22365 2.1885115,1.540562 21.984977 0 1 -1.220944,-2.2925 2.1885115,1.540562 21.984977 0 1 2.722769,-0.41165 2.1885115,1.540562 21.984977 0 1 1.047143,0.85466 2.8787695,2.0616956 21.72951 0 0 -1.638082,-1.62047 z" />
    <path
       id="rect13"
       style="fill:#01870e;fill-opacity:1;stroke:none;stroke-width:0.227"
       d="m 50.051519,137.04873 -4.762826,1.75042 1.871726,5.00548 -6.573038,2.46606 1.828183,4.87347 6.568146,-2.46443 2.052737,5.48924 4.762662,-1.75092 -2.064477,-5.52071 5.736557,-2.15218 -1.828203,-4.87345 -5.731639,2.15052 z" />
    <path
       id="rect13-9"
       style="fill:#ed7201;fill-opacity:1;stroke:none;stroke-width:0.321715"
       d="m 71.447832,127.19358 -7.202942,1.47177 1.512279,7.25265 -9.952228,2.10042 1.480709,7.06255 9.944842,-2.09913 1.65858,7.95364 7.202831,-1.47246 -1.668039,-7.99924 8.68569,-1.83303 -1.480719,-7.06254 -8.678307,1.83171 z" />
    <path
       id="path14-0-9"
       style="fill:#828701;fill-opacity:1;stroke:none;stroke-width:0.331391"
       d="m 58.457828,127.49232 a 2.0616956,2.8787695 32.247955 0 0 0.09343,-3.6429 2.0616956,2.8787695 32.247955 0 0 -3.285089,1.00576 2.0616956,2.8787695 32.247955 0 0 -0.608459,2.87066 1.540562,2.1885115 32.503422 0 1 0.554726,-1.76257 1.540562,2.1885115 32.503422 0 1 2.476867,-0.78192 1.540562,2.1885115 32.503422 0 1 -0.0923,2.75217 1.540562,2.1885115 32.503422 0 1 -1.031454,0.87354 2.0616956,2.8787695 32.247955 0 0 1.892273,-1.31475 z" />
    <path
       id="rect2"
       style="fill:#9c1212;fill-opacity:1;stroke:#000000;stroke-width:0.155825"
       d="m 145.65127,125.3634 0.0143,0.0513 -102.174294,28.58807 3.120622,11.15317 -0.01154,0.003 9.937639,35.51731 0.01154,-0.003 0.639892,2.28698 102.255051,-28.61066 -0.63988,-2.28699 28.93703,-8.0965 -9.93763,-35.51731 -0.28894,0.0808 -0.0329,-0.11758 -31.11323,-3.24931 z" />
    <ellipse
       style="fill:#ffe4d5;fill-opacity:1;stroke:#000000;stroke-width:0.227"
       id="path5"
       cx="23.164207"
       cy="140.70848"
       rx="14.537174"
       ry="15.089219"
       transform="rotate(-32.40777)" />
    <path
       id="path6-6"
       style="fill:#de0000;fill-opacity:1;stroke:#000000;stroke-width:0.163628"
       d="m 73.42214,91.780906 a 12.877128,25.058284 63.476237 0 0 -16.670421,22.712234 12.877128,25.058284 63.476237 0 0 2.408234,2.71096 26.159908,12.910836 74.480845 0 1 7.263676,-16.78887 26.159908,12.910836 74.480845 0 1 16.53131,13.83655 12.877128,25.058284 63.476237 0 1 16.746688,-15.995812 12.877128,25.058284 63.476237 0 1 2.437583,-1.133442 12.877128,25.058284 63.476237 0 0 -0.5455,-5.010031 12.877128,25.058284 63.476237 0 0 -28.171573,-0.331599 z" />
    <path
       id="path6"
       style="fill:#e0e0e0;fill-opacity:1;stroke:#000000;stroke-width:0.167978"
       d="m 91.712047,94.384199 a 25.749392,26.382895 61.545309 0 0 -12.320718,14.094551 26.204645,13.583198 73.557132 0 1 4.07143,6.43908 12.871853,26.419161 61.545309 0 1 17.256071,-17.121124 12.871853,26.419161 61.545309 0 1 2.5263,-1.284495 12.871853,26.419161 61.545309 0 0 -0.62955,-5.032377 12.871853,26.419161 61.545309 0 0 -0.15734,-0.271366 25.749392,26.382895 61.545309 0 0 -10.746947,3.176118 z" />
    <path
       id="path14-06"
       style="fill:#d27b01;fill-opacity:1;stroke:none;stroke-width:0.331391"
       d="m 66.696131,125.58368 a 2.8787695,2.0616956 50.732351 0 0 -3.425338,-1.24359 2.8787695,2.0616956 50.732351 0 0 -0.08762,3.43449 2.8787695,2.0616956 50.732351 0 0 2.529638,1.48721 2.1885115,1.540562 50.987818 0 1 -1.49576,-1.08493 2.1885115,1.540562 50.987818 0 1 0.04369,-2.59699 2.1885115,1.540562 50.987818 0 1 2.580912,0.96011 2.1885115,1.540562 50.987818 0 1 0.501448,1.2552 2.8787695,2.0616956 50.732351 0 0 -0.646973,-2.2115 z" />
    <ellipse
       style="fill:#e0e0e0;fill-opacity:1;stroke:#000000;stroke-width:0.227"
       id="path7"
       cx="25.25279"
       cy="131.53004"
       rx="5.3364315"
       ry="5.7044611"
       transform="rotate(-15.631467)" />
    <ellipse
       style="fill:#000000;fill-opacity:1;stroke:#000000;stroke-width:0.117699"
       id="path8"
       cx="26.160591"
       cy="150.81985"
       rx="0.60365552"
       ry="1.6890013"
       transform="matrix(0.52632041,-0.85028632,0.59730279,0.80201582,0,0)"
       inkscape:transform-center-x="-0.47342085"
       inkscape:transform-center-y="0.88359395" />
    <path
       id="path9"
       style="fill:#f3cfb9;fill-opacity:1;stroke:#000000;stroke-width:0.227"
       d="m 107.21044,97.890167 a 2.1621747,2.1161709 74.368533 0 0 -0.71295,0.359388 4.7843866,4.048327 74.368533 0 1 2.00939,2.908585 4.7843866,4.048327 74.368533 0 1 0.16152,0.79031 2.1621747,2.1161709 74.368533 0 0 1.16247,-2.546293 2.1621747,2.1161709 74.368533 0 0 -2.62047,-1.511979 z" />
    <path
       id="rect11"
       style="fill:#d6d6d6;fill-opacity:1;stroke:none;stroke-width:0.167059"
       inkscape:transform-center-y="-1.5249571"
       d="m 108.49281,101.68615 -2.71798,3.16035 1.45749,1.49313 0.57829,-0.67248 a 2.5082038,1.8494185 73.301368 0 1 1.09682,-2.76502 2.5082038,1.8494185 73.301368 0 1 0.7583,-0.0145 z"
       inkscape:transform-center-x="-0.52936889" />
    <ellipse
       style="fill:#d6d6d6;fill-opacity:1;stroke:none;stroke-width:0.190457"
       id="path12"
       cx="-20.579695"
       cy="155.97221"
       rx="4.9223981"
       ry="6.8085499"
       transform="rotate(-52.987099)" />
    <path
       id="path14"
       style="fill:#01870e;fill-opacity:1;stroke:none;stroke-width:0.331391"
       d="m 45.397593,136.55668 a 2.8787695,2.0616956 21.72951 0 0 -3.598737,0.57315 2.8787695,2.0616956 21.72951 0 0 1.588589,3.04627 2.8787695,2.0616956 21.72951 0 0 2.933486,0.0742 2.1885115,1.540562 21.984977 0 1 -1.834225,-0.22363 2.1885115,1.540562 21.984977 0 1 -1.220943,-2.29251 2.1885115,1.540562 21.984977 0 1 2.722769,-0.41166 2.1885115,1.540562 21.984977 0 1 1.047143,0.85467 2.8787695,2.0616956 21.72951 0 0 -1.638082,-1.62048 z" />
    <path
       id="path14-0"
       style="fill:#01870e;fill-opacity:1;stroke:none;stroke-width:0.331391"
       d="m 50.510864,136.64854 a 2.0616956,2.8787695 4.3860307 0 0 -1.619877,-3.26427 2.0616956,2.8787695 4.3860307 0 0 -2.434213,2.42446 2.0616956,2.8787695 4.3860307 0 0 0.803649,2.82222 1.540562,2.1885115 4.6414977 0 1 -0.333303,-1.81749 1.540562,2.1885115 4.6414977 0 1 1.824305,-1.84883 1.540562,2.1885115 4.6414977 0 1 1.204607,2.47627 1.540562,2.1885115 4.6414977 0 1 -0.503648,1.25431 2.0616956,2.8787695 4.3860307 0 0 1.05848,-2.04667 z" />
    <path
       id="path14-0-6"
       style="fill:#cb7b01;fill-opacity:1;stroke:none;stroke-width:0.331391"
       d="m 71.144895,126.67186 a 2.0616956,2.8787695 9.1489427 0 0 -1.343239,-3.3875 2.0616956,2.8787695 9.1489427 0 0 -2.627116,2.21397 2.0616956,2.8787695 9.1489427 0 0 0.566554,2.8792 1.540562,2.1885115 9.4044097 0 1 -0.181244,-1.83888 1.540562,2.1885115 9.4044097 0 1 1.971521,-1.69096 1.540562,2.1885115 9.4044097 0 1 0.994837,2.56773 1.540562,2.1885115 9.4044097 0 1 -0.606062,1.20816 2.0616956,2.8787695 9.1489427 0 0 1.224771,-1.95172 z" />
  </g>
</svg>
