<?xml version="1.0" encoding="UTF-8" standalone="no"?>
<!-- Created with Inkscape (http://www.inkscape.org/) -->

<svg
   width="65.092072mm"
   height="78.26503mm"
   viewBox="0 0 65.092072 78.26503"
   version="1.1"
   id="svg1"
   sodipodi:docname="rena1.svg"
   inkscape:version="1.4.2 (f4327f4, 2025-05-13)"
   xmlns:inkscape="http://www.inkscape.org/namespaces/inkscape"
   xmlns:sodipodi="http://sodipodi.sourceforge.net/DTD/sodipodi-0.dtd"
   xmlns:xlink="http://www.w3.org/1999/xlink"
   xmlns="http://www.w3.org/2000/svg"
   xmlns:svg="http://www.w3.org/2000/svg">
  <sodipodi:namedview
     id="namedview1"
     pagecolor="#ffffff"
     bordercolor="#000000"
     borderopacity="0.25"
     inkscape:showpageshadow="2"
     inkscape:pageopacity="0.0"
     inkscape:pagecheckerboard="0"
     inkscape:deskcolor="#d1d1d1"
     inkscape:document-units="mm"
     inkscape:zoom="5.6568542"
     inkscape:cx="165.72815"
     inkscape:cy="61.606678"
     inkscape:window-width="1920"
     inkscape:window-height="1009"
     inkscape:window-x="-8"
     inkscape:window-y="-8"
     inkscape:window-maximized="1"
     inkscape:current-layer="layer1" />
  <defs
     id="defs1">
    <linearGradient
       id="linearGradient26"
       inkscape:collect="always">
      <stop
         style="stop-color:#9b4200;stop-opacity:1;"
         offset="0"
         id="stop26" />
      <stop
         style="stop-color:#eb8411;stop-opacity:1;"
         offset="1"
         id="stop27" />
    </linearGradient>
    <linearGradient
       id="linearGradient5"
       inkscape:collect="always">
      <stop
         style="stop-color:#e94949;stop-opacity:1;"
         offset="0"
         id="stop5" />
      <stop
         style="stop-color:#e99449;stop-opacity:0;"
         offset="1"
         id="stop6" />
    </linearGradient>
    <radialGradient
       inkscape:collect="always"
       xlink:href="#linearGradient5"
       id="radialGradient6"
       cx="95.051315"
       cy="47.66391"
       fx="95.051315"
       fy="47.66391"
       r="0.34321493"
       gradientTransform="matrix(3.8827027,0,0,3.3099217,-271.57318,-106.01094)"
       gradientUnits="userSpaceOnUse" />
    <linearGradient
       inkscape:collect="always"
       xlink:href="#linearGradient26"
       id="linearGradient27"
       x1="80.989441"
       y1="43.147324"
       x2="82.385742"
       y2="43.147324"
       gradientUnits="userSpaceOnUse"
       gradientTransform="matrix(0.98404067,-1.1633273,0.86897191,0.34302554,-32.407489,131.11569)" />
    <linearGradient
       inkscape:collect="always"
       xlink:href="#linearGradient26"
       id="linearGradient28"
       gradientUnits="userSpaceOnUse"
       gradientTransform="matrix(0.98192167,-0.88704467,0.6295113,0.44881342,-21.122345,103.04109)"
       x1="80.989441"
       y1="43.147324"
       x2="82.385742"
       y2="43.147324" />
  </defs>
  <g
     inkscape:label="Warstwa 1"
     inkscape:groupmode="layer"
     id="layer1"
     transform="translate(-49.184362,-38.900627)">
    <rect
       style="fill:#5c2a00;fill-opacity:1;stroke:#ba6c31;stroke-width:0.467552;stroke-dasharray:none;stroke-opacity:1"
       id="rect35"
       width="7.1546049"
       height="13.116913"
       x="115.52158"
       y="64.864555"
       rx="0"
       ry="2.6565909"
       transform="matrix(0.99971226,-0.02398754,-0.42803606,0.90376166,0,0)" />
    <path
       id="rect1"
       style="fill:#572500;fill-opacity:1;stroke:#e99449;stroke-width:0.965;stroke-dasharray:none;stroke-opacity:1"
       d="m 55.967222,93.822508 c -4.256913,-2.163735 -10.144976,-3.498345 -16.66871,-3.498345 -13.047468,0 -23.551363,5.338981 -23.551363,11.970847 0,2.72272 1.770653,5.22744 4.760737,7.23434 -0.02403,2.82439 1.237955,7.46475 3.366382,11.8985 0.715802,1.4911 1.458895,2.8115 2.189275,3.92172 -1.772167,-0.007 -3.892055,0.3339 -5.801043,0.99917 l -5.455042,1.90087 c -3.358038,1.17026 -4.754523,2.88897 -3.131283,3.85349 l 1.563573,0.92902 c 1.623239,0.96452 5.633376,0.79902 8.991414,-0.37124 l 5.455722,-1.90113 c 2.450257,-0.8539 3.85558,-1.99956 3.806055,-2.93138 0.560425,-2.50863 -0.743758,-7.98771 -3.237747,-13.18297 -0.352237,-0.73374 -0.711139,-1.42627 -1.071827,-2.07268 0.962947,0.29298 1.970824,0.5518 3.017526,0.77357 0.934674,2.2812 2.92212,5.28199 5.406393,7.98142 1.251541,1.35993 2.468832,2.46903 3.557617,3.27854 -1.509669,0.44653 -3.262089,1.32011 -4.733934,2.42827 l -4.011732,3.02043 c -2.469617,1.85938 -3.187285,3.65456 -1.608977,4.02492 l 1.520484,0.35666 c 1.578309,0.37036 4.836835,-0.82812 7.306452,-2.6875 l 4.012412,-3.0207 c 2.336133,-1.75888 3.104402,-3.46035 1.844669,-3.95262 -0.06083,-2.18442 -2.547652,-6.49696 -5.985909,-10.23299 -0.100542,-0.10925 -0.201138,-0.21696 -0.301188,-0.32295 0.688786,0.0305 1.386615,0.0464 2.091504,0.0464 6.430944,0 12.243832,-1.29736 16.485734,-3.40697 0.441225,1.2257 1.004338,2.53173 1.671637,3.83927 0.552504,1.08261 1.126435,2.06785 1.694757,2.92879 -1.350529,-0.42546 -2.934675,-0.69766 -4.386237,-0.70892 l -4.425003,-0.0341 c -2.723813,-0.0212 -3.919371,0.88507 -2.680549,2.03183 l 1.193492,1.10425 c 1.238822,1.14677 4.428691,2.08693 7.152504,2.10807 l 4.425271,0.0348 c 1.818585,0.0141 2.955907,-0.3852 3.142283,-0.99344 0.02445,-0.02 0.04796,-0.0418 0.07084,-0.0655 1.057346,-1.09548 0.0011,-5.71548 -2.368215,-10.35908 1.281833,1.17848 2.784122,2.36123 4.378057,3.41123 0.851992,0.56125 1.667062,1.04298 2.427135,1.4413 -0.801582,0.70823 -1.592502,1.58499 -2.255245,2.54079 l -2.720303,3.92327 c -1.67438,2.41477 -1.879308,4.39131 -0.459364,4.43189 l 1.36814,0.0388 c 1.419945,0.0406 3.911331,-1.87063 5.58571,-4.28539 l 2.720097,-3.9228 c 1.674379,-2.41477 1.878834,-4.39151 0.45889,-4.43209 l -0.216015,-0.006 c -1.377801,-2.09612 -4.278081,-4.83021 -7.570331,-6.99897 -1.012014,-0.66667 -1.971956,-1.22123 -2.849497,-1.65697 0.462054,-0.93851 0.707576,-1.92136 0.707576,-2.93467 0,-3.315933 -2.625909,-6.309037 -6.882822,-8.472772 z"
       transform="rotate(-23.551856)" />
    <path
       id="path3"
       style="fill:#572500;fill-opacity:1;stroke:#e99449;stroke-width:0.77492;stroke-dasharray:none;stroke-opacity:1"
       d="m 96.625748,45.690036 a 5.7851037,10.637602 72.761172 0 0 -2.688234,0.521921 5.7851037,10.637602 72.761172 0 0 -9.233658,8.496391 5.7851037,10.637602 72.761172 0 0 6.644099,3.591403 2.2520613,8.344935 75.849678 0 0 6.239122,-0.634385 2.2520613,8.344935 75.849678 0 0 8.052983,-4.207371 2.2520613,8.344935 75.849678 0 0 -1.36349,-0.952477 5.7851037,10.637602 72.761172 0 0 0.93316,-3.336222 5.7851037,10.637602 72.761172 0 0 -8.583982,-3.479265 z" />
    <path
       style="fill:#572500;fill-opacity:1;stroke:#e99449;stroke-width:0.788986;stroke-dasharray:none;stroke-opacity:1"
       d="m 104.02199,52.57895 c -0.0247,0.01121 -0.0865,0.01121 -0.0742,0.03362 0.0125,0.02242 0.0963,-0.04865 0.0742,-0.03362 -0.27765,0.188747 -0.0682,0.03715 -0.18541,0.100833 -0.0549,0.02981 -0.0993,0.06531 -0.14831,0.100834 0.0295,0.07111 -0.0583,0.02409 -0.0742,0.03362 -0.0436,0.02635 -0.0686,0.0732 -0.1112,0.100834 -0.0158,0.01034 -0.0389,0.0077 -0.0557,0.01681 -0.0391,0.02129 -0.0746,0.05907 -0.11121,0.08403 -0.0222,0.01503 -0.0512,0.01971 -0.0741,0.03362 -0.0281,0.01695 -0.0474,0.04903 -0.0742,0.06722 -0.0658,0.04474 -0.15026,0.06809 -0.22249,0.100834 -0.008,0.0035 -0.0125,0.01121 -0.0186,0.01681 -0.0247,0.01121 -0.0483,0.02482 -0.0743,0.03362 -0.0885,0.03007 -0.19168,0.03364 -0.2781,0.06722 -0.0205,0.008 -0.0347,0.02651 -0.0557,0.03361 -0.10586,0.03599 -0.24109,0.05602 -0.35226,0.06722 -0.16165,0.0163 -0.31876,0.05489 -0.48205,0.06722 -0.16397,0.01238 -0.3358,0 -0.50058,0 -0.11511,0 -0.23794,0.01037 -0.35227,0 -0.0945,-0.0086 -0.18403,-0.04331 -0.2781,-0.05041 -0.15241,-0.0115 -0.25767,-0.01277 -0.40789,-0.06722 -0.0385,-0.01397 -0.0727,-0.03645 -0.11124,-0.05041 -0.0237,-0.0086 -0.0494,-0.01121 -0.07416,-0.01681 -0.03708,-0.01121 -0.07516,-0.01998 -0.111239,-0.03361 -0.05102,-0.01927 -0.09412,-0.05739 -0.148321,-0.06722 -0.01819,-0.0033 -0.03803,0.0053 -0.05561,0 -0.02115,-0.0064 -0.03569,-0.02458 -0.05561,-0.03361 -0.06353,-0.02878 -0.142041,-0.03917 -0.203941,-0.06722 -0.01563,-0.0071 -0.02311,-0.02412 -0.03708,-0.03361 -0.01102,-0.0076 -0.02733,-0.008 -0.03708,-0.01681 -0.0043,-0.0039 0.0049,-0.01345 0,-0.01681 -0.0221,-0.01503 -0.05116,-0.01971 -0.07416,-0.03361 -0.04389,-0.02651 -0.09034,-0.07976 -0.111238,-0.117637 -0.01242,-0.0225 -0.04423,-0.02329 -0.05561,-0.03361 -0.0043,-0.0039 0.0043,-0.01285 0,-0.01681 -0.0043,-0.0039 -0.01299,0.0025 -0.01855,0 -0.07716,-0.03496 0.01982,0.0011 -0.01854,-0.03362 -0.0043,-0.0039 -0.01417,0.0039 -0.01855,0 -0.0092,-0.0084 -0.0092,-0.0252 -0.01855,-0.03361 -0.0043,-0.0039 -0.01418,0.0039 -0.01855,0 -0.01803,-0.01635 -0.02874,-0.07184 -0.05561,-0.08403 -0.0421,-0.01908 -0.08768,-0.03134 -0.129782,-0.05041"
       id="path4" />
    <path
       style="fill:#572500;fill-opacity:1;stroke:url(#radialGradient6);stroke-width:2.55392;stroke-dasharray:none"
       d="m 101.07033,49.656379 c -0.0147,0 -0.12385,0.02829 -0.13395,0.03655 -0.0121,0.0096 -0.0107,0.02702 -0.0225,0.03656 -0.0307,0.02544 -0.0782,0.03194 -0.11162,0.05483 -0.0827,0.05644 -0.17463,0.116397 -0.24558,0.182761 -0.0593,0.0555 -0.098,0.125554 -0.15628,0.182763 -0.14017,0.137686 -0.3004,0.285393 -0.468871,0.402104 -0.216846,0.150215 -0.465983,0.256026 -0.714476,0.365557 -0.222597,0.09813 -0.443848,0.199955 -0.66982,0.292448 -0.226469,0.09268 -0.444683,0.190963 -0.685488,0.2586 l -0.757806,0.568663 c -0.07135,0.0487 -0.173972,0.03576 -0.253578,0.06834 -0.760122,0.311108 -1.609051,0.522424 -2.433683,0.712826 -0.422295,0.09753 -0.807757,0.228055 -1.25033,0.182764"
       id="path5" />
    <path
       style="fill:#572500;fill-opacity:1;stroke:#e99449;stroke-width:0.788986;stroke-dasharray:none;stroke-opacity:1"
       d="m 99.187132,52.09601 c -0.02343,0.03259 -0.08375,0.06865 -0.104883,0.106947 -0.0039,0.0071 0.0028,0.01624 0,0.02376 -0.0046,0.0123 -0.01972,0.02387 -0.0262,0.03564 -0.0088,0.01595 -0.0049,0.04444 -0.01312,0.05941 -0.0077,0.01383 -0.01858,0.02181 -0.0262,0.03564 -0.0058,0.01064 0.0032,0.02412 0,0.03565 -0.01583,0.05738 -0.0062,-5.47e-4 -0.0262,0.03564 -0.0092,0.01684 -0.0068,0.0422 -0.01312,0.05941 -0.005,0.01355 -0.02124,0.02209 -0.0262,0.03564 -0.0014,0.0037 0,0.008 0,0.01189 0,0.008 0.0028,0.01624 0,0.02376 -0.0039,0.01064 -0.02069,0.01375 -0.0262,0.02376 -0.0095,0.0172 -0.008,0.041 -0.01312,0.05941 -0.01433,0.05189 -0.0798,0.08528 -0.104883,0.130716 -0.0061,0.01121 -0.006,0.0249 -0.01312,0.03565 -0.03933,0.05941 -0.01312,0 -0.03933,0.03564 -0.008,0.01094 -0.117592,0.136478 -0.131099,0.142598 -0.03285,0.0149 -0.06905,0.04859 -0.104883,0.05941 -0.01957,0.0059 -0.03452,0.01563 -0.05244,0.02376 -0.0079,0.0035 -0.02003,-0.0056 -0.0262,0 -0.0175,0.01586 0.02781,0.0114 -0.01312,0.02376 -0.01242,0.0037 -0.0276,-0.0053 -0.03933,0 -0.06392,0.02897 -0.133994,0.0088 -0.183542,0.02376 -0.08981,0.02714 -0.20683,0.01189 -0.301526,0.01189"
       id="path6" />
    <path
       id="path8"
       style="fill:#000000;fill-opacity:1;stroke:#000000;stroke-width:0.107079;stroke-dasharray:none;stroke-opacity:1"
       d="m 97.171114,48.609198 a 0.50019334,1.4694435 68.855212 0 0 -1.465508,-0.0011 0.50019334,1.4694435 68.855212 0 0 -1.293748,0.995149 z" />
    <path
       id="path8-1"
       style="fill:#000000;fill-opacity:1;stroke:#000000;stroke-width:0.12988;stroke-dasharray:none;stroke-opacity:1"
       d="M 97.143797,48.628656 A 0.50399636,2.1455654 84.215867 0 0 95.266788,48.250305 0.50399636,2.1455654 84.215867 0 0 92.90168,48.91786 Z" />
    <ellipse
       style="fill:#000000;fill-opacity:1;stroke:#000000;stroke-width:0.372585;stroke-dasharray:none;stroke-opacity:1"
       id="path10"
       cx="88.293457"
       cy="62.136646"
       rx="0.34969068"
       ry="0.15609686"
       transform="matrix(0.98670486,-0.16252238,0.19656515,0.98049077,0,0)"
       inkscape:transform-center-x="-1.656279"
       inkscape:transform-center-y="-0.84060477" />
    <path
       style="fill:none;fill-opacity:1;stroke:none;stroke-width:0.246354;stroke-dasharray:none;stroke-opacity:1"
       d="m 89.413877,50.864128 c -0.06617,0.06002 -0.04831,0.153856 -0.02666,0.229553 0.0817,0.285635 0.172855,0.439374 0.426529,0.628247 0.0524,0.03902 0.117303,0.06195 0.173274,0.09665 0.02865,0.01778 0.05055,0.04374 0.07998,0.0604 0.08775,0.04972 0.159642,0.07241 0.253249,0.09666 0.06091,0.01578 -0.01345,0.01205 0.06664,0.02417 0.0526,0.008 0.10663,0 0.159947,0 0.126857,0 0.294627,0.0154 0.386539,-0.08457 0.102255,-0.111235 0.07998,-0.226575 0.07998,-0.362453"
       id="path14" />
    <path
       style="fill:none;fill-opacity:1;stroke:#a05611;stroke-width:0.246354;stroke-dasharray:none;stroke-opacity:1"
       d="m 104.80881,49.57139 c -0.004,-0.0161 0.004,-0.05235 -0.0134,-0.04832 -9.2e-4,2.11e-4 0.068,0.248207 0,-0.0604 -0.001,-0.0056 -0.0114,-0.0067 -0.0134,-0.01208 -0.008,-0.02151 -0.006,-0.05098 -0.0134,-0.07249 -0.002,-0.0054 -0.009,-0.0081 -0.0134,-0.01209 -0.004,-0.01207 -0.01,-0.02376 -0.0134,-0.03624 -0.002,-0.0079 0.003,-0.01668 0,-0.02417 -0.009,-0.02166 -0.0335,-0.03696 -0.04,-0.0604 -0.002,-0.0079 0.003,-0.01695 0,-0.02417 -0.006,-0.01023 -0.021,-0.01397 -0.0267,-0.02417 -0.003,-0.0072 0.004,-0.01748 0,-0.02417 -0.006,-0.0074 -0.0196,-0.0057 -0.0267,-0.01208 -0.0176,-0.01595 -0.0164,-0.06603 -0.0267,-0.08457 -0.006,-0.01023 -0.0209,-0.01397 -0.0267,-0.02417 -0.008,-0.01485 -0.006,-0.03347 -0.0134,-0.04832 -0.002,-0.0036 -0.01,0.0032 -0.0134,0 -0.0779,-0.09427 0.0115,-0.0068 -0.04,-0.08457 -0.04,-0.0604 -0.0134,0 -0.04,-0.03625 -0.0203,-0.02763 -0.0586,-0.101433 -0.0799,-0.120817 -0.007,-0.0064 -0.0184,-0.0071 -0.0267,-0.01208 -0.0213,-0.01285 -0.0237,-0.03353 -0.04,-0.04833 -0.0255,-0.02316 -0.0635,-0.04239 -0.0933,-0.0604 -0.0204,-0.01232 -0.01,-0.01668 -0.0267,-0.03624 -0.0206,-0.02494 -0.0651,-0.04763 -0.0934,-0.06041 -0.0555,-0.02515 0.0143,8.2e-4 -0.0134,-0.02417 -0.0243,-0.02206 -0.0659,-0.02972 -0.0933,-0.04832 -0.01,-0.0068 -0.0161,-0.01786 -0.0267,-0.02417 -0.003,-0.0022 -0.01,0.0029 -0.0134,0 -0.0276,-0.02499 0.0422,0.0011 -0.0133,-0.02417 -0.0444,-0.02015 0.0381,0.04686 -0.04,-0.01207 -0.0241,-0.01824 -0.0385,-0.04768 -0.0667,-0.06041 -0.0973,-0.04412 -0.1983,-0.09364 -0.30656,-0.1329 -0.0312,-0.01127 -0.0287,-0.01843 -0.0667,-0.02417 -0.076,-0.01148 -0.27788,-0.03113 -0.34655,0 -0.0462,0.02094 -0.12707,-0.02094 -0.17329,0 -0.006,0.0025 -0.008,0.0095 -0.0134,0.01208 -0.0114,0.0051 -0.0448,-0.0077 -0.0533,0 -0.0178,0.0161 0.0223,0.01207 -0.0134,0.01207"
       id="path15" />
    <path
       style="fill:#c45a00;fill-opacity:1;stroke:#c25d13;stroke-width:0.246354;stroke-dasharray:none;stroke-opacity:1"
       d="m 102.86279,48.230322 c -0.0166,0.06246 -0.0644,0.01105 -0.0934,0.02417 -0.003,0.002 0.003,0.0092 0,0.01208 -0.009,0.0086 -0.0274,-0.0038 -0.04,0 -0.006,0.002 -0.009,0.0081 -0.0134,0.01208 -0.0133,0.004 -0.0263,0.0096 -0.04,0.01208 -0.0175,0.0031 -0.0361,-0.0039 -0.0533,0 -0.009,0.004 -0.0178,0.0081 -0.0267,0.01208 0,0.004 0.003,0.01023 0,0.01207 -0.0454,0.02058 -0.0903,-8.2e-4 -0.13329,0.01208 -0.006,0.002 -0.008,0.0095 -0.0134,0.01208 -0.017,0.0078 -0.0481,-0.0041 -0.0667,0 -0.0543,0.0123 -0.10146,0.01208 -0.15996,0.01208 -0.0286,0 -0.0789,0.0063 -0.10658,0 -0.006,-0.0013 -0.008,-0.01023 -0.0133,-0.01208 -0.008,-0.0025 -0.0182,0.0025 -0.0267,0 -0.0138,-0.0041 -0.0268,-0.01819 -0.04,-0.02417 -0.012,-0.0054 -0.0276,0.0044 -0.04,0 -0.0148,-0.0054 -0.0251,-0.01879 -0.04,-0.02417 -0.008,-0.003 -0.0187,0.0036 -0.0267,0 -0.0114,-0.0051 -0.0154,-0.01908 -0.0267,-0.02417 -0.008,-0.0036 -0.018,0.002 -0.0267,0 -0.0367,-0.0083 -0.0872,-0.02141 -0.11995,-0.03625 -0.0234,-0.01057 -0.0426,-0.03742 -0.0667,-0.04832 -0.005,-0.002 -0.0102,0.0029 -0.0133,0 -0.003,-0.0029 0.003,-0.0092 0,-0.01207 -0.006,-0.0057 -0.0204,0.0057 -0.0267,0 -0.007,-0.0064 -0.005,-0.01916 -0.0133,-0.02417 -0.008,-0.0044 -0.0187,0.0036 -0.0267,0 -0.005,-0.002 0.003,-0.0092 0,-0.01208 -0.0157,-0.01424 -0.0343,-0.0259 -0.0533,-0.03624 -0.003,-0.0022 -0.0102,0.0029 -0.0133,0 -0.003,-0.0029 0.003,-0.0092 0,-0.01208 -0.003,-0.0029 -0.009,0.002 -0.0133,0 -0.0555,-0.02515 0.0143,8.19e-4 -0.0133,-0.02417 -0.002,-0.002 -0.0602,0.0062 -0.04,-0.01207 0.009,-0.0082 0.0665,-0.0039 0.08,-0.01208 0.0209,-0.01262 0.0309,-0.03814 0.0533,-0.04832 0.0203,-0.0092 0.0464,-0.0029 0.0667,-0.01207 0.0407,-0.01843 -0.0244,-0.0096 0.04,-0.02417 0.0251,-0.0057 0.0549,0.0057 0.08,0 0.0193,-0.0043 0.0344,-0.01848 0.0533,-0.02417 0.005,-0.0013 0.009,0 0.0133,0 0.009,0 0.0182,0.0025 0.0267,0 0.008,-0.0025 0.0318,-0.02171 0.04,-0.02417 0.0301,-0.0091 0.0448,0.0038 0.08,-0.01209 0.0114,-0.0051 0.0154,-0.01908 0.0267,-0.02417 0.0887,-0.0402 0.0866,-0.07241 0.14661,-0.14498 0.0148,-0.01799 0.0396,-0.02963 0.0533,-0.04832 0.005,-0.0067 -0.007,-0.01848 0,-0.02417 0.003,-0.0029 0.0102,0.0029 0.0133,0 0.002,-0.002 3.1e-4,-0.04823 0,-0.04832 -0.0169,-0.0051 -0.0356,0 -0.0533,0 -0.005,0 -0.0133,-0.004 -0.0133,0 0,0.01597 0.0491,-0.03706 0.0667,-0.08457 0.002,-0.0077 -0.0267,-0.0081 -0.0267,0 0,0.004 0.009,-0.002 0.0133,0 0.0231,0.0105 0.0473,0.02064 0.0667,0.03624 0.0212,0.01714 0.0353,0.04046 0.0533,0.0604 0.022,0.02437 0.0458,0.04734 0.0667,0.07249 0.006,0.0072 0.004,0.01916 0.0134,0.02417 0.008,0.0044 0.0204,-0.0057 0.0267,0 0.006,0.0057 -0.002,0.01651 0,0.02417 0.009,0.02552 0.0404,0.06117 0.0533,0.08457 0.003,0.0058 0.063,0.06926 0.0667,0.07249 0.007,0.0064 0.021,0.0046 0.0267,0.01208 0.004,0.0067 -0.004,0.01747 0,0.02417 0.006,0.0075 0.0196,0.0057 0.0267,0.01208 0.0129,0.01176 0.003,0.03451 0.0134,0.04833 0.002,0.0034 0.0114,-0.0034 0.0134,0 0.0303,0.08249 -0.009,0.0039 0.04,0.04832 0.016,0.01455 0.0125,0.06042 0.04,0.06042"
       id="path16" />
    <path
       style="fill:none;fill-opacity:1;stroke:#a05611;stroke-width:0.246354;stroke-dasharray:none;stroke-opacity:1"
       d="m 98.739871,49.987872 c -3.01e-4,-0.002 9.05e-4,-0.0057 -0.0012,-0.0054 -0.0021,2.74e-4 9.04e-4,0.0035 0.0012,0.0054 z"
       id="path18" />
    <path
       style="fill:none;fill-opacity:1;stroke:#a05611;stroke-width:0.246354;stroke-dasharray:none;stroke-opacity:1"
       d="m 99.409046,49.719834 c -9.06e-4,0.0013 -0.0014,0.0029 0,0 z"
       id="path19" />
    <path
       style="fill:none;fill-opacity:1;stroke:#a05611;stroke-width:0.246354;stroke-dasharray:none;stroke-opacity:1"
       d="m 99.540995,50.275132 c 0,-0.0057 0,-0.0057 0,0 z"
       id="path20" />
    <path
       style="fill:none;fill-opacity:1;stroke:#a05611;stroke-width:0.246354;stroke-dasharray:none;stroke-opacity:1"
       d="m 99.013197,49.309768 c -0.0062,0 -0.0062,0 0,0 z"
       id="path21" />
    <path
       style="fill:none;fill-opacity:1;stroke:#a05611;stroke-width:0.246354;stroke-dasharray:none;stroke-opacity:1"
       d="m 99.860266,49.425098 c -0.0062,0 -0.0062,0 0,0 z"
       id="path22" />
    <path
       style="fill:none;fill-opacity:1;stroke:#a05611;stroke-width:0.246354;stroke-dasharray:none;stroke-opacity:1"
       d="m 100.35861,50.174749 c 0.006,0 0.0126,0 0,0 z"
       id="path23" />
    <path
       style="fill:none;fill-opacity:1;stroke:#a05611;stroke-width:0.246354;stroke-dasharray:none;stroke-opacity:1"
       d="m 100.70262,49.49985 -0.0471,0.05126"
       id="path24" />
    <path
       style="fill:none;fill-opacity:1;stroke:#a05611;stroke-width:0.246354;stroke-dasharray:none;stroke-opacity:1"
       d="m 100.15701,49.800942 c 0.0493,-0.02589 -0.0593,0.03361 0.0267,-0.01512"
       id="path25" />
    <path
       id="path26"
       style="fill:url(#linearGradient27);stroke:#a05611;stroke-width:0.263599;stroke-dasharray:none;stroke-opacity:1"
       d="m 82.848757,49.851935 a 2.8341902,0.83917111 19.657199 0 0 2.046182,1.714975 2.8341902,0.83917111 19.657199 0 0 0.02679,0.01058 c 0.180752,-0.232965 0.380649,-0.480087 0.596134,-0.734831 0.185911,-0.219784 0.370592,-0.430419 0.54951,-0.627421 a 2.8341902,0.83917111 19.657199 0 0 -0.02181,-0.0086 2.8341902,0.83917111 19.657199 0 0 -3.196823,-0.354693 z" />
    <path
       id="path26-3"
       style="fill:url(#linearGradient28);stroke:#a05611;stroke-width:0.226899;stroke-dasharray:none;stroke-opacity:1"
       d="m 84.351136,48.591539 a 2.338975,0.7534075 34.017595 0 0 1.32502,1.872586 2.338975,0.7534075 34.017595 0 0 0.01941,0.01383 c 0.183707,-0.180271 0.385046,-0.37018 0.600066,-0.564425 0.185512,-0.167587 0.368461,-0.327146 0.544477,-0.475377 a 2.338975,0.7534075 34.017595 0 0 -0.0158,-0.01124 2.338975,0.7534075 34.017595 0 0 -2.473183,-0.835362 z" />
    <path
       id="path28"
       style="fill:#626262;fill-opacity:1;stroke:#62584f;stroke-width:0.341128;stroke-dasharray:none;stroke-opacity:1"
       d="m 82.682612,46.095854 a 4.5835461,0.35770959 25.074023 0 0 -0.06009,0.0235 4.5835461,0.35770959 25.074023 0 0 3.96085,2.251623 4.5835461,0.35770959 25.074023 0 0 1.214646,0.552094 c 0.09742,-0.131042 0.198145,-0.265134 0.3016,-0.401522 0.03973,-0.05237 0.0791,-0.103953 0.118401,-0.155377 A 4.5835461,0.35770959 25.074023 0 0 86.961556,47.75801 4.5835461,0.35770959 25.074023 0 0 82.682612,46.095856 Z" />
    <ellipse
       style="fill:#626262;fill-opacity:1;stroke:#62584f;stroke-width:0.218301;stroke-dasharray:none;stroke-opacity:1"
       id="path29"
       cx="59.90287"
       cy="75.318062"
       rx="0.38420731"
       ry="2.1063583"
       transform="matrix(0.90366095,-0.42824864,0.37017666,0.92896138,0,0)" />
    <ellipse
       style="fill:#626262;fill-opacity:1;stroke:#62584f;stroke-width:0.139359;stroke-dasharray:none;stroke-opacity:1"
       id="path30"
       cx="-7.5432234"
       cy="93.682594"
       rx="1.1669836"
       ry="0.33348355"
       transform="matrix(0.46213403,-0.88681009,0.91928385,0.39359524,0,0)" />
    <ellipse
       style="fill:#626262;fill-opacity:1;stroke:#62584f;stroke-width:0.227688;stroke-dasharray:none;stroke-opacity:1"
       id="path31"
       cx="85.123116"
       cy="45.646942"
       rx="0.4999018"
       ry="1.8029228" />
    <ellipse
       style="fill:#626262;fill-opacity:1;stroke:#62584f;stroke-width:0.246597;stroke-dasharray:none;stroke-opacity:1"
       id="path32"
       cx="94.298195"
       cy="16.987982"
       rx="0.26117668"
       ry="1.1589816"
       transform="matrix(0.95050786,0.31070052,-0.36967083,0.92916278,0,0)" />
    <path
       id="path33"
       style="fill:#626262;fill-opacity:1;stroke:#62584f;stroke-width:0.278914;stroke-dasharray:none;stroke-opacity:1"
       d="m 86.194589,42.894476 a 3.7260086,0.38092153 57.2147 0 0 1.682632,3.319914 3.7260086,0.38092153 57.2147 0 0 1.058929,1.550722 c 0.08081,-0.05067 0.163508,-0.102012 0.247639,-0.153757 0.107143,-0.06591 0.212389,-0.13001 0.315111,-0.191678 a 3.7260086,0.38092153 57.2147 0 0 -0.955708,-1.578229 3.7260086,0.38092153 57.2147 0 0 -2.348603,-2.946972 z" />
    <ellipse
       style="fill:#626262;fill-opacity:1;stroke:#62584f;stroke-width:0.246538;stroke-dasharray:none;stroke-opacity:1"
       id="path34"
       cx="95.590317"
       cy="16.579403"
       rx="0.3174825"
       ry="2.1457293"
       transform="matrix(0.96423522,0.265048,-0.31727758,0.94833271,0,0)" />
    <ellipse
       style="fill:#626262;fill-opacity:1;stroke:#62584f;stroke-width:0.246354;stroke-dasharray:none;stroke-opacity:1"
       id="path35"
       cx="88.720772"
       cy="44.895779"
       rx="0.23992106"
       ry="1.6793534" />
    <ellipse
       style="fill:#626262;fill-opacity:1;stroke:#62584f;stroke-width:0.259063;stroke-dasharray:none;stroke-opacity:1"
       id="path35-7"
       cx="98.518723"
       cy="23.840206"
       rx="0.27250519"
       ry="1.6350237"
       transform="matrix(0.97808556,0.20820335,-0.36184616,0.93223782,0,0)" />
    <ellipse
       style="fill:#626262;fill-opacity:1;stroke:#62584f;stroke-width:0.203221;stroke-dasharray:none;stroke-opacity:1"
       id="path35-9"
       cx="19.031376"
       cy="95.910614"
       rx="0.18976957"
       ry="1.4447737"
       transform="matrix(0.66847272,-0.74373666,0.77804921,0.62820333,0,0)" />
    <ellipse
       style="fill:#bc5600;fill-opacity:1;stroke:#d79766;stroke-width:0.179783;stroke-dasharray:none;stroke-opacity:1"
       id="path37"
       cx="53.250111"
       cy="80.752151"
       rx="3.9758568"
       ry="3.5549068" />
  </g>
</svg>
